<?xml version="1.0" standalone="no"?>
<!DOCTYPE svg PUBLIC "-//W3C//DTD SVG 20010904//EN"
 "http://www.w3.org/TR/2001/REC-SVG-20010904/DTD/svg10.dtd">
<svg version="1.0" xmlns="http://www.w3.org/2000/svg"
 width="458.000000pt" height="176.000000pt" viewBox="0 0 458.000000 176.000000"
 preserveAspectRatio="xMidYMid meet">

<g transform="translate(0.000000,176.000000) scale(0.100000,-0.100000)"
fill="#000000" stroke="none">
<path d="M669 1523 c-125 -166 -379 -426 -522 -532 -54 -40 -101 -80 -104 -89
-10 -24 8 -42 114 -122 223 -168 449 -385 572 -550 35 -47 70 -89 77 -93 20
-12 51 9 78 51 122 192 482 556 669 677 19 12 27 26 27 46 0 24 -11 36 -73 78
-218 147 -487 405 -642 616 -63 86 -73 82 -196 -82z m218 -85 c48 -31 106 -77
197 -158 66 -59 256 -272 283 -318 19 -32 24 -51 19 -74 -16 -79 -248 -340
-439 -493 -84 -67 -104 -76 -151 -63 -112 29 -566 472 -566 552 0 53 134 220
323 403 140 135 206 183 252 183 18 0 52 -14 82 -32z"/>
<path d="M734 1398 c-61 -41 -312 -289 -387 -383 -75 -94 -82 -116 -58 -163
53 -104 377 -413 499 -476 30 -15 35 -15 65 -1 43 20 114 78 216 178 169 166
281 306 281 353 0 63 -323 396 -479 495 -57 37 -76 36 -137 -3z m118 -208 l45
-120 -30 0 -29 0 3 -122 4 -123 -37 -3 -38 -3 0 120 0 121 -25 0 c-14 0 -25 3
-25 8 0 4 16 54 35 111 19 58 35 111 35 118 0 37 21 1 62 -107z m-182 -192
c22 -13 40 -26 40 -29 0 -4 -15 -10 -34 -13 -45 -9 -86 -42 -86 -71 0 -68 252
-98 393 -45 30 11 61 27 67 35 30 37 -23 92 -75 79 -20 -5 -27 -1 -35 21 -6
16 -9 31 -8 34 2 4 35 -1 73 -10 39 -10 63 -18 55 -18 -9 -1 -3 -11 18 -27 46
-36 45 -84 -2 -113 -177 -110 -606 -70 -606 57 0 29 50 78 105 103 52 23 49
23 95 -3z m184 -250 c3 -7 7 -61 10 -120 l6 -108 -55 0 -55 0 0 83 c0 45 3 99
6 120 6 35 8 37 46 37 22 0 40 -5 42 -12z"/>
<path d="M1832 1483 l-62 -4 2 -322 3 -322 113 -3 112 -3 0 331 0 330 -52 -2
c-29 -1 -81 -3 -116 -5z"/>
<path d="M2150 1160 l0 -330 345 0 345 0 0 60 0 60 -222 2 -223 3 0 70 0 70
70 2 c39 0 130 2 203 2 l132 1 0 60 0 60 -205 0 -206 0 3 72 3 72 170 -2 c94
-1 194 1 223 5 l52 6 0 58 0 59 -345 0 -345 0 0 -330z"/>
<path d="M2980 1160 l0 -330 345 0 345 0 0 60 0 60 -225 0 -225 0 0 75 0 75
205 0 205 0 0 60 0 60 -205 0 -206 0 3 73 3 72 70 1 c39 0 139 2 223 2 l152 2
0 60 0 60 -345 0 -345 0 0 -330z"/>
<path d="M3820 1160 l0 -330 335 0 335 0 0 60 0 60 -212 2 -213 3 -3 64 c-2
45 1 67 10 72 7 5 100 9 206 9 l192 0 0 60 0 60 -202 2 -203 3 -3 68 -3 67 28
2 c15 1 114 2 218 2 l190 1 3 63 3 62 -341 0 -340 0 0 -330z"/>
<path d="M2792 669 c0 -58 -3 -85 -14 -95 -29 -30 -67 11 -53 57 6 16 13 20
36 17 33 -5 37 3 13 26 -21 22 -57 20 -78 -3 -22 -24 -25 -81 -6 -115 18 -34
72 -36 94 -4 l16 22 0 -22 c0 -15 6 -22 20 -22 19 0 20 7 20 110 l0 110 -25 0
c-24 0 -24 -1 -23 -81z"/>
<path d="M4310 640 c0 -103 1 -110 20 -110 17 0 20 7 21 43 1 36 1 147 -1 170
0 4 -9 7 -20 7 -19 0 -20 -7 -20 -110z"/>
<path d="M2189 709 c-31 -31 -21 -61 28 -85 23 -12 52 -24 64 -27 19 -5 20 -8
9 -21 -17 -21 -46 -20 -68 2 -19 19 -52 18 -52 -2 0 -26 40 -49 85 -49 106 0
114 94 10 123 -46 13 -59 33 -28 44 10 4 28 -1 42 -12 27 -20 51 -19 51 2 0
45 -103 63 -141 25z"/>
<path d="M2395 710 c-3 -11 -13 -20 -21 -20 -8 0 -14 -9 -14 -20 0 -11 4 -20
9 -20 6 0 11 -24 13 -52 2 -44 7 -54 27 -64 13 -7 30 -10 37 -7 21 8 17 40 -6
46 -15 4 -20 14 -20 41 0 29 4 36 20 36 13 0 20 7 20 20 0 13 -7 20 -20 20
-13 0 -20 7 -20 20 0 11 -4 20 -9 20 -5 0 -13 -9 -16 -20z"/>
<path d="M3258 699 c-29 -28 -36 -49 -18 -49 6 0 10 -19 10 -43 0 -61 19 -82
73 -78 24 1 23 41 -2 41 -21 0 -31 19 -31 56 0 17 6 24 20 24 13 0 20 7 20 20
0 13 -7 20 -19 20 -11 0 -21 8 -23 19 -3 16 -6 15 -30 -10z"/>
<path d="M3430 630 l0 -100 66 0 c81 0 104 11 104 50 0 22 -7 33 -27 44 -20
11 -23 15 -11 16 21 0 40 33 32 55 -9 23 -46 35 -110 35 l-54 0 0 -100z m118
39 c2 -12 -6 -18 -33 -21 -40 -5 -48 2 -39 27 9 22 68 17 72 -6z m7 -79 c0
-19 -65 -27 -76 -9 -13 21 1 30 39 27 25 -2 37 -8 37 -18z"/>
<path d="M2490 630 c0 -79 11 -100 53 -100 25 0 37 7 49 28 l17 27 1 -27 c0
-18 5 -28 15 -28 12 0 15 16 15 80 0 73 -2 80 -20 80 -17 0 -20 -7 -20 -49 0
-52 -19 -84 -45 -75 -9 4 -15 25 -17 62 -3 50 -6 57 -25 60 -22 3 -23 0 -23
-58z"/>
<path d="M2892 667 c-27 -29 -29 -86 -4 -117 32 -39 132 -26 132 16 0 17 -24
18 -50 2 -15 -9 -25 -10 -37 -2 -36 23 -26 34 31 34 53 0 56 1 56 25 0 60 -85
88 -128 42z m77 -21 c9 -11 6 -15 -19 -18 -30 -5 -44 15 -17 25 20 9 24 8 36
-7z"/>
<path d="M3050 610 c0 -79 0 -80 25 -80 23 0 25 4 25 48 0 55 10 75 36 70 16
-3 20 -14 22 -61 3 -53 5 -57 27 -57 23 0 25 3 25 53 0 28 -6 63 -13 77 -17
34 -59 38 -86 9 l-21 -23 0 22 c0 15 -6 22 -20 22 -18 0 -20 -7 -20 -80z"/>
<path d="M3640 611 c0 -74 2 -81 20 -81 18 0 26 20 21 52 0 4 4 19 9 33 7 18
17 25 35 25 20 0 25 5 25 26 0 21 -4 25 -22 22 -12 -2 -28 -14 -34 -27 l-12
-24 -4 24 c-1 13 -11 25 -20 27 -16 3 -18 -6 -18 -77z"/>
<path d="M3788 676 c-37 -28 -10 -54 30 -28 16 11 26 12 34 4 15 -15 1 -32
-26 -32 -38 0 -70 -32 -63 -62 9 -33 32 -42 65 -26 28 14 44 42 18 32 -9 -3
-23 -3 -32 0 -13 5 -14 9 -4 21 23 27 49 18 56 -20 4 -25 11 -35 25 -35 17 0
19 8 19 63 0 49 -4 68 -18 80 -22 20 -80 22 -104 3z"/>
<path d="M3948 678 c-4 -11 -3 -115 1 -140 0 -5 10 -8 21 -8 17 0 20 7 20 43
0 50 19 83 44 74 12 -5 16 -20 16 -62 0 -52 1 -55 25 -55 24 0 25 2 25 64 0
45 -5 69 -16 80 -22 23 -60 20 -79 -6 l-15 -23 -6 23 c-7 24 -29 30 -36 10z"/>
<path d="M4156 669 c-33 -26 -35 -82 -5 -118 35 -42 129 -28 129 20 0 23 -35
26 -44 3 -3 -9 -15 -14 -28 -12 -19 2 -24 10 -26 44 -4 48 19 65 49 38 12 -11
22 -13 35 -6 15 9 15 11 -5 31 -27 27 -71 27 -105 0z"/>
<path d="M4370 671 c-14 -27 -13 -30 11 -24 28 8 39 -11 39 -69 0 -44 2 -48
25 -48 23 0 25 3 25 50 0 70 -22 110 -60 110 -19 0 -33 -7 -40 -19z"/>
<path d="M3750 460 c0 -16 5 -21 23 -18 12 2 22 10 22 18 0 8 -10 16 -22 18
-18 3 -23 -2 -23 -18z"/>
<path d="M3551 365 c1 -103 2 -105 25 -105 21 0 23 5 26 53 2 28 1 76 0 105
-4 48 -6 52 -28 52 l-25 0 2 -105z"/>
<path d="M4420 365 c0 -98 1 -105 20 -105 19 0 20 7 20 105 0 98 -1 105 -20
105 -19 0 -20 -7 -20 -105z"/>
<path d="M2473 436 c-25 -21 -28 -31 -28 -81 0 -50 3 -60 28 -81 15 -13 36
-24 45 -24 24 0 62 28 62 46 0 8 5 14 10 14 6 0 10 -12 10 -26 0 -16 5 -24 13
-22 7 3 12 22 12 49 0 44 0 44 -37 47 -29 2 -38 0 -38 -12 0 -9 7 -16 15 -16
19 0 19 -14 0 -30 -21 -17 -64 -4 -74 23 -10 25 -5 66 11 84 14 17 53 17 67
-1 12 -14 51 -11 51 4 0 5 -12 18 -26 29 -36 28 -86 27 -121 -3z"/>
<path d="M2667 453 c-4 -3 -7 -48 -7 -100 l0 -93 75 0 c59 0 75 3 75 14 0 11
-14 16 -47 18 -41 3 -48 6 -51 26 -3 20 1 22 42 22 34 0 46 4 46 15 0 11 -12
15 -45 15 -41 0 -45 2 -45 25 0 23 3 25 50 25 43 0 50 3 50 20 0 18 -7 20 -68
20 -38 0 -72 -3 -75 -7z"/>
<path d="M2857 453 c-4 -3 -7 -48 -7 -100 0 -85 2 -93 19 -93 16 0 20 8 23 38
3 36 4 37 46 40 l42 3 0 -40 c0 -34 3 -41 20 -41 19 0 20 7 20 100 0 93 -1
100 -20 100 -17 0 -20 -7 -20 -40 l0 -40 -45 0 -45 0 0 40 c0 38 -14 52 -33
33z"/>
<path d="M3069 443 c-1 -10 0 -47 0 -83 3 -83 21 -105 87 -105 68 0 84 25 84
126 0 72 -2 79 -20 79 -18 0 -20 -7 -20 -75 0 -66 -2 -76 -21 -86 -16 -8 -28
-8 -45 0 -22 10 -24 16 -24 86 0 68 -2 75 -20 75 -12 0 -20 -7 -21 -17z"/>
<path d="M3350 360 l0 -100 68 0 c40 0 75 5 86 13 24 18 17 58 -13 73 l-23 12
21 11 c13 7 21 21 21 37 0 31 -48 54 -115 54 l-45 0 0 -100z m117 44 c7 -20
-13 -34 -49 -34 -23 0 -28 4 -28 25 0 22 4 25 35 25 23 0 38 -6 42 -16z m7
-75 c17 -15 -16 -40 -48 -37 -33 3 -49 34 -25 49 15 9 58 2 73 -12z"/>
<path d="M4133 424 c-24 -26 -29 -44 -13 -44 6 0 10 -25 10 -55 0 -50 3 -56
25 -65 32 -12 55 -3 55 21 0 12 -7 19 -20 19 -17 0 -20 7 -20 40 0 33 3 40 20
40 11 0 20 7 20 15 0 8 -7 15 -16 15 -9 0 -18 9 -21 20 -7 25 -12 24 -40 -6z"/>
<path d="M3628 409 c-23 -13 -24 -41 -2 -32 25 9 44 -24 44 -74 0 -37 3 -43
21 -43 20 0 21 4 17 66 -3 50 -9 70 -23 80 -22 16 -34 17 -57 3z"/>
<path d="M3896 404 c-22 -21 -20 -33 3 -27 25 6 30 -4 33 -65 3 -46 5 -52 26
-52 20 0 22 5 22 48 0 51 -29 112 -54 112 -8 0 -22 -7 -30 -16z"/>
<path d="M3996 398 c-22 -30 -20 -41 4 -26 26 17 33 7 38 -57 4 -46 8 -55 23
-55 17 0 19 8 19 63 0 49 -4 68 -18 80 -25 23 -48 21 -66 -5z"/>
<path d="M4260 402 c-13 -11 -20 -24 -16 -30 8 -14 36 -16 36 -3 0 15 32 22
46 10 20 -16 10 -25 -40 -38 -45 -11 -61 -30 -51 -62 10 -29 44 -34 76 -10 23
17 29 19 29 6 0 -8 9 -15 20 -15 18 0 20 7 20 60 0 47 -4 64 -20 80 -25 25
-71 26 -100 2z m80 -80 c0 -5 -9 -17 -20 -27 -16 -15 -22 -16 -35 -5 -12 10
-13 16 -4 26 12 15 59 19 59 6z"/>
<path d="M3750 335 c0 -68 2 -75 20 -75 18 0 20 7 20 75 0 68 -2 75 -20 75
-18 0 -20 -7 -20 -75z"/>
<path d="M3830 335 c0 -66 2 -75 19 -75 14 0 19 10 24 48 8 66 -1 102 -24 102
-17 0 -19 -8 -19 -75z"/>
<path d="M1227 351 c20 -13 33 -30 36 -48 l4 -28 2 27 c1 26 -37 68 -63 68 -6
0 3 -9 21 -19z"/>
<path d="M1165 350 c-3 -6 1 -7 9 -4 18 7 21 14 7 14 -6 0 -13 -4 -16 -10z"/>
<path d="M1180 303 c0 -27 3 -34 9 -24 7 11 13 12 23 3 11 -9 14 -5 13 21 0
25 -5 33 -22 35 -20 3 -23 -1 -23 -35z m40 12 c0 -8 -7 -15 -15 -15 -8 0 -15
7 -15 15 0 8 7 15 15 15 8 0 15 -7 15 -15z"/>
<path d="M1164 263 c23 -28 68 -30 87 -5 11 14 11 15 -1 5 -20 -18 -60 -16
-84 5 -21 17 -21 17 -2 -5z"/>
<path d="M3472 188 c-19 -19 -15 -28 24 -44 25 -10 33 -19 26 -26 -6 -6 -16
-5 -30 3 -22 14 -39 8 -27 -10 10 -17 75 -13 81 4 8 20 -13 45 -37 45 -11 0
-19 5 -19 11 0 7 10 9 26 5 19 -5 25 -3 22 6 -6 18 -50 22 -66 6z"/>
<path d="M3560 190 c0 -5 7 -10 15 -10 11 0 15 -11 15 -40 0 -22 5 -40 10 -40
6 0 10 18 10 40 0 29 4 40 15 40 8 0 15 5 15 10 0 6 -18 10 -40 10 -22 0 -40
-4 -40 -10z"/>
<path d="M3660 150 l0 -50 35 0 c39 0 55 21 36 44 -9 11 -9 15 1 18 23 8 -11
38 -43 38 -28 0 -29 -2 -29 -50z m50 20 c0 -5 -7 -10 -15 -10 -8 0 -15 5 -15
10 0 6 7 10 15 10 8 0 15 -4 15 -10z m10 -40 c0 -5 -9 -10 -20 -10 -11 0 -20
5 -20 10 0 6 9 10 20 10 11 0 20 -4 20 -10z"/>
<path d="M3771 186 c-7 -8 -11 -30 -9 -48 3 -30 6 -33 38 -33 31 0 35 3 35 25
0 19 -6 26 -25 28 -24 3 -24 3 -5 -12 16 -12 17 -17 8 -27 -16 -16 -21 -11
-25 26 -3 27 -1 30 25 28 18 -1 27 2 24 10 -5 18 -52 20 -66 3z"/>
<path d="M3872 188 c-17 -17 -15 -77 3 -84 8 -4 26 -3 40 0 20 5 25 13 25 39
0 50 -38 75 -68 45z m46 -40 c-2 -21 -8 -33 -18 -33 -10 0 -16 12 -18 33 -3
27 0 32 18 32 18 0 21 -5 18 -32z"/>
<path d="M3964 189 c-3 -6 -2 -15 4 -21 6 -6 12 -6 16 1 10 15 26 14 26 -2 0
-8 -11 -20 -25 -27 -39 -21 -32 -40 15 -40 22 0 40 5 40 10 0 6 -10 10 -22 10
l-22 0 22 20 c12 12 22 24 22 28 0 27 -61 44 -76 21z"/>
<path d="M4062 187 c-16 -19 -4 -28 19 -14 33 21 35 -4 1 -31 -18 -15 -32 -30
-32 -34 0 -5 18 -8 40 -8 22 0 40 5 40 10 0 6 -10 10 -22 10 l-22 0 23 21 c12
11 21 28 19 37 -4 21 -51 28 -66 9z"/>
<path d="M4165 170 c-20 -38 -19 -50 3 -50 10 0 23 -5 29 -11 9 -9 16 -8 27 4
10 10 12 18 6 22 -5 3 -10 19 -10 36 0 40 -34 40 -55 -1z m35 -15 c0 -8 -7
-15 -15 -15 -9 0 -12 6 -9 15 4 8 10 15 15 15 5 0 9 -7 9 -15z"/>
<path d="M4250 190 c-12 -7 -12 -12 -2 -22 6 -6 12 -25 12 -40 0 -15 5 -28 10
-28 6 0 10 23 10 50 0 51 -4 57 -30 40z"/>
<path d="M4311 166 c-26 -42 -26 -46 2 -46 13 0 29 -6 35 -12 10 -10 15 -10
22 2 6 8 8 21 5 28 -3 8 -5 25 -5 38 0 36 -34 31 -59 -10z m39 -11 c0 -8 -7
-15 -15 -15 -9 0 -12 6 -9 15 4 8 10 15 15 15 5 0 9 -7 9 -15z"/>
<path d="M4400 190 c0 -5 10 -10 22 -10 21 0 21 0 2 -15 -17 -13 -17 -14 -2
-15 23 0 33 -19 18 -33 -10 -9 -14 -9 -17 1 -6 17 -23 15 -23 -3 0 -11 11 -15
35 -15 42 0 55 22 31 49 -12 13 -14 21 -7 26 22 13 10 25 -24 25 -19 0 -35 -4
-35 -10z"/>
</g>
</svg>
