<?xml version="1.0" encoding="UTF-8"?>
<svg version="1.1" xmlns="http://www.w3.org/2000/svg" width="464" height="397">
<path d="M0 0 C153.12 0 306.24 0 464 0 C464 131.01 464 262.02 464 397 C310.88 397 157.76 397 0 397 C0 265.99 0 134.98 0 0 Z " fill="#FEC007" transform="translate(0,0)"/>
<path d="M0 0 C2.94917266 -0.18432329 4.3403946 -0.16961614 7 1 C9.18738894 3.42626867 10.92038004 6.0319684 12.75 8.73828125 C19.8642782 19.0515144 28.76004482 27.95169889 37.5625 36.8125 C38.42447998 37.68374512 39.28645996 38.55499023 40.17456055 39.45263672 C48.42492211 47.66317164 57.31542038 54.94641426 66.75 61.75 C67.35714844 62.19214844 67.96429688 62.63429687 68.58984375 63.08984375 C69.19441406 63.52941406 69.79898438 63.96898437 70.421875 64.421875 C71.00702881 64.84831299 71.59218262 65.27475098 72.19506836 65.71411133 C73.44627851 66.60551182 74.71418235 67.47376107 75.99438477 68.32299805 C77.71268357 69.47787034 79.36264588 70.73297502 81 72 C81.4375 75.3125 81.4375 75.3125 81 78 C80.01 78.33 79.02 78.66 78 79 C78 79.66 78 80.32 78 81 C76.48668339 82.21004675 74.91017036 83.34123831 73.3125 84.4375 C68.71894845 87.69225738 64.3522601 91.10465338 60.0625 94.75 C59.24809448 95.43920532 59.24809448 95.43920532 58.41723633 96.14233398 C56.09571348 98.12731004 53.87152503 100.13270552 51.74609375 102.328125 C50 104 50 104 48 104 C47.505 105.485 47.505 105.485 47 107 C46.29875 107.556875 45.5975 108.11375 44.875 108.6875 C41.86798737 111.10618407 39.57479771 113.67823319 37.08203125 116.60546875 C35.10161756 118.88313027 33.05648604 121.08793157 30.98999023 123.28735352 C24.59888405 130.11568263 19.10770033 137.3500454 13.90625 145.1328125 C13.2153125 146.14085937 12.524375 147.14890625 11.8125 148.1875 C11.20019531 149.10917969 10.58789062 150.03085937 9.95703125 150.98046875 C8 153 8 153 5.4453125 153.48828125 C2.5550091 152.91114399 1.83712097 152.30443534 0.0625 150 C-0.4428125 149.35804688 -0.948125 148.71609375 -1.46875 148.0546875 C-2.22671875 147.03761719 -2.22671875 147.03761719 -3 146 C-3.4846875 145.36320313 -3.969375 144.72640625 -4.46875 144.0703125 C-6.48434292 141.400724 -8.47706196 138.71465561 -10.45239258 136.01513672 C-14.96059881 130.01590044 -19.99704996 124.69475035 -25.32324219 119.41601562 C-26.74116919 118.00876432 -28.1479781 116.59033963 -29.5546875 115.171875 C-35.72496086 109.01878903 -42.14778779 103.38039606 -49 98 C-49.639375 97.49694336 -50.27875 96.99388672 -50.9375 96.47558594 C-52.49198209 95.26502389 -54.05808155 94.06942104 -55.625 92.875 C-56.71756303 92.03921295 -57.81001029 91.20327456 -58.90234375 90.3671875 C-59.92457031 89.58601563 -60.94679688 88.80484375 -62 88 C-63.73108184 86.6691541 -65.46049977 85.33613822 -67.1875 84 C-67.88230469 83.46375 -68.57710937 82.9275 -69.29296875 82.375 C-71 81 -71 81 -73 79 C-72.90823335 75.54727975 -72.25668084 74.25943099 -69.8125 71.7890625 C-68.4203125 70.71785156 -68.4203125 70.71785156 -67 69.625 C-65.49759766 68.449375 -65.49759766 68.449375 -63.96484375 67.25 C-62.20734843 65.91624861 -60.44962612 64.58279611 -58.69140625 63.25 C-49.56609461 56.28462451 -41.32036813 48.39574865 -33.1875 40.3125 C-32.6728418 39.80251465 -32.15818359 39.2925293 -31.62792969 38.76708984 C-24.84524969 31.95613055 -18.79939319 24.60812716 -12.9375 17 C-12.35162109 16.24460938 -11.76574219 15.48921875 -11.16210938 14.7109375 C-7.39376088 9.84261603 -3.6792606 4.93594203 0 0 Z " fill="#07287F" transform="translate(81,115)"/>
<path d="M0 0 C22.77 0 45.54 0 69 0 C69 4.29 69 8.58 69 13 C54.48 13 39.96 13 25 13 C25.33 17.29 25.66 21.58 26 26 C45.8 26.495 45.8 26.495 66 27 C66 31.29 66 35.58 66 40 C52.47 40 38.94 40 25 40 C25.33 44.29 25.66 48.58 26 53 C40.19 53.33 54.38 53.66 69 54 C69 57.96 69 61.92 69 66 C67.16316778 67.83683222 64.21344528 67.12774193 61.75195312 67.12939453 C61.09992416 67.13114685 60.4478952 67.13289917 59.77610779 67.13470459 C57.61112847 67.13912204 55.44623021 67.13618551 53.28125 67.1328125 C51.78291813 67.13348557 50.28458637 67.13445562 48.78625488 67.13571167 C45.64216067 67.1371885 42.49809483 67.13503458 39.35400391 67.13037109 C35.31513461 67.1246738 31.27633176 67.12795289 27.2374649 67.13394356 C24.1423492 67.13754958 21.04724935 67.13641039 17.95213318 67.13381577 C16.46251925 67.13314661 14.9729039 67.13397452 13.48329163 67.13629532 C11.40483765 67.13882253 9.32649269 67.13498033 7.24804688 67.12939453 C5.4705304 67.12820114 5.4705304 67.12820114 3.65710449 67.12698364 C1 67 1 67 0 66 C-0.09413687 63.94443339 -0.11742998 61.88559819 -0.11352539 59.82788086 C-0.11364593 59.17355607 -0.11376646 58.51923128 -0.11389065 57.84507847 C-0.11314179 55.71829948 -0.10551481 53.59160715 -0.09765625 51.46484375 C-0.09664917 50.16840942 -0.09564209 48.8719751 -0.09460449 47.53625488 C-0.08935257 42.66999432 -0.07539147 37.80374632 -0.0625 32.9375 C-0.041875 22.068125 -0.02125 11.19875 0 0 Z " fill="#0F2D75" transform="translate(385,132)"/>
<path d="M0 0 C22.77 0 45.54 0 69 0 C69 4.29 69 8.58 69 13 C54.15 13 39.3 13 24 13 C24 17.62 24 22.24 24 27 C37.53 27 51.06 27 65 27 C65 31.29 65 35.58 65 40 C51.47 40 37.94 40 24 40 C24 44.29 24 48.58 24 53 C25.32765381 52.99476318 26.65530762 52.98952637 28.02319336 52.98413086 C32.93008759 52.96608574 37.83697887 52.95456979 42.74389648 52.94506836 C44.87118014 52.94002702 46.99846031 52.93319409 49.12573242 52.92456055 C52.17627826 52.91248621 55.22677845 52.90676986 58.27734375 52.90234375 C59.71327126 52.89460182 59.71327126 52.89460182 61.1782074 52.88670349 C62.49946373 52.88659019 62.49946373 52.88659019 63.84741211 52.88647461 C64.62684677 52.884254 65.40628143 52.88203339 66.20933533 52.87974548 C68 53 68 53 69 54 C69 57.96 69 61.92 69 66 C46.23 66 23.46 66 0 66 C0 44.22 0 22.44 0 0 Z " fill="#03257E" transform="translate(219,132)"/>
<path d="M0 0 C22.77 0 45.54 0 69 0 C69 4.29 69 8.58 69 13 C54.15 13 39.3 13 24 13 C24 17.62 24 22.24 24 27 C37.53 27 51.06 27 65 27 C65 30.96 65 34.92 65 39 C51.47 39 37.94 39 24 39 C24 43.95 24 48.9 24 54 C38.85 54 53.7 54 69 54 C69 58.29 69 62.58 69 67 C46.23 67 23.46 67 0 67 C0 44.89 0 22.78 0 0 Z " fill="#02257D" transform="translate(302,132)"/>
<path d="M0 0 C2.94917266 -0.18432329 4.3403946 -0.16961614 7 1 C9.18738894 3.42626867 10.92038004 6.0319684 12.75 8.73828125 C19.8642782 19.0515144 28.76004482 27.95169889 37.5625 36.8125 C38.42447998 37.68374512 39.28645996 38.55499023 40.17456055 39.45263672 C48.42492211 47.66317164 57.31542038 54.94641426 66.75 61.75 C67.35714844 62.19214844 67.96429688 62.63429687 68.58984375 63.08984375 C69.19441406 63.52941406 69.79898438 63.96898437 70.421875 64.421875 C71.00702881 64.84831299 71.59218262 65.27475098 72.19506836 65.71411133 C73.44627851 66.60551182 74.71418235 67.47376107 75.99438477 68.32299805 C77.71268357 69.47787034 79.36264588 70.73297502 81 72 C81.4375 75.3125 81.4375 75.3125 81 78 C80.01 78.33 79.02 78.66 78 79 C78 79.66 78 80.32 78 81 C76.48668339 82.21004675 74.91017036 83.34123831 73.3125 84.4375 C68.71894845 87.69225738 64.3522601 91.10465338 60.0625 94.75 C59.24809448 95.43920532 59.24809448 95.43920532 58.41723633 96.14233398 C56.09571348 98.12731004 53.87152503 100.13270552 51.74609375 102.328125 C50 104 50 104 48 104 C47.505 105.485 47.505 105.485 47 107 C46.29875 107.556875 45.5975 108.11375 44.875 108.6875 C41.86798737 111.10618407 39.57479771 113.67823319 37.08203125 116.60546875 C35.10161756 118.88313027 33.05648604 121.08793157 30.98999023 123.28735352 C24.59888405 130.11568263 19.10770033 137.3500454 13.90625 145.1328125 C13.2153125 146.14085937 12.524375 147.14890625 11.8125 148.1875 C11.20019531 149.10917969 10.58789062 150.03085937 9.95703125 150.98046875 C8 153 8 153 5.4453125 153.48828125 C2.5550091 152.91114399 1.83712097 152.30443534 0.0625 150 C-0.4428125 149.35804688 -0.948125 148.71609375 -1.46875 148.0546875 C-2.22671875 147.03761719 -2.22671875 147.03761719 -3 146 C-3.4846875 145.36320313 -3.969375 144.72640625 -4.46875 144.0703125 C-6.48434292 141.400724 -8.47706196 138.71465561 -10.45239258 136.01513672 C-14.96059881 130.01590044 -19.99704996 124.69475035 -25.32324219 119.41601562 C-26.74116919 118.00876432 -28.1479781 116.59033963 -29.5546875 115.171875 C-35.72496086 109.01878903 -42.14778779 103.38039606 -49 98 C-49.639375 97.49694336 -50.27875 96.99388672 -50.9375 96.47558594 C-52.49198209 95.26502389 -54.05808155 94.06942104 -55.625 92.875 C-56.71756303 92.03921295 -57.81001029 91.20327456 -58.90234375 90.3671875 C-59.92457031 89.58601563 -60.94679688 88.80484375 -62 88 C-63.73108184 86.6691541 -65.46049977 85.33613822 -67.1875 84 C-67.88230469 83.46375 -68.57710937 82.9275 -69.29296875 82.375 C-71 81 -71 81 -73 79 C-72.90823335 75.54727975 -72.25668084 74.25943099 -69.8125 71.7890625 C-68.4203125 70.71785156 -68.4203125 70.71785156 -67 69.625 C-65.49759766 68.449375 -65.49759766 68.449375 -63.96484375 67.25 C-62.20734843 65.91624861 -60.44962612 64.58279611 -58.69140625 63.25 C-49.56609461 56.28462451 -41.32036813 48.39574865 -33.1875 40.3125 C-32.6728418 39.80251465 -32.15818359 39.2925293 -31.62792969 38.76708984 C-24.84524969 31.95613055 -18.79939319 24.60812716 -12.9375 17 C-12.35162109 16.24460938 -11.76574219 15.48921875 -11.16210938 14.7109375 C-7.39376088 9.84261603 -3.6792606 4.93594203 0 0 Z M-23 38 C-23.59425781 38.57234375 -24.18851563 39.1446875 -24.80078125 39.734375 C-32.40353082 47.0929249 -39.55007136 54.5891944 -46 63 C-46.76699219 63.96164063 -47.53398438 64.92328125 -48.32421875 65.9140625 C-49.06285156 66.87054688 -49.80148438 67.82703125 -50.5625 68.8125 C-51.22378906 69.66457031 -51.88507812 70.51664063 -52.56640625 71.39453125 C-54.32851695 74.59705942 -54.49596571 76.39125899 -54 80 C-48.96075753 89.87503727 -39.62109823 98.09628997 -32 106 C-31.23171875 106.80953125 -30.4634375 107.6190625 -29.671875 108.453125 C-24.82120751 113.46153777 -19.5153239 117.74620067 -14 122 C-12.84748769 122.89691887 -11.69515276 123.79406569 -10.54296875 124.69140625 C-9.36239643 125.60730892 -8.18141117 126.5226796 -7 127.4375 C-6.43579346 127.87497559 -5.87158691 128.31245117 -5.2902832 128.76318359 C-0.99416811 132.06788751 1.76968573 133.66053638 7.375 133.59765625 C12.97058556 132.32366132 16.91086564 127.8069265 21 124 C22.77022185 122.41598304 24.54102931 120.83262021 26.3125 119.25 C27.12976563 118.50363281 27.94703125 117.75726563 28.7890625 116.98828125 C30.55080083 115.4039618 32.33088787 113.90609002 34.1875 112.4375 C37.1270353 109.88990274 39.56800976 107.18846755 42.08203125 104.23046875 C44.16573891 101.80725679 46.3303696 99.47144238 48.5 97.125 C58.178262 86.91840516 58.178262 86.91840516 61.84765625 74.01953125 C56.03801691 53.32436437 26.08647177 31.33621684 9 20 C-2.75856049 14.12071976 -15.35684302 30.61447753 -23 38 Z " fill="#09287A" transform="translate(81,115)"/>
<path d="M0 0 C2.88524527 1.76048864 5.45212614 3.78416289 8 6 C7.34 6.66 6.68 7.32 6 8 C5.34 7.67 4.68 7.34 4 7 C4.495 8.485 4.495 8.485 5 10 C4.01 10.33 3.02 10.66 2 11 C0.97299556 13.32891096 0.97299556 13.32891096 0.3125 16.0625 C-0.06455078 17.44115234 -0.06455078 17.44115234 -0.44921875 18.84765625 C-0.63097656 19.55792969 -0.81273437 20.26820313 -1 21 C-3.95183101 18.04816899 -4.08663988 15.04488053 -5 11 C-5.66 11 -6.32 11 -7 11 C-7.10183594 11.96035156 -7.20367187 12.92070312 -7.30859375 13.91015625 C-7.98024442 18.61171091 -9.50908701 22.96467976 -11.0625 27.4375 C-11.34416016 28.26443359 -11.62582031 29.09136719 -11.91601562 29.94335938 C-12.60517792 31.96412338 -13.3018231 33.98233282 -14 36 C-12.35 36 -10.7 36 -9 36 C-9 43.59 -9 51.18 -9 59 C-6.36 59 -3.72 59 -1 59 C-1 55.04 -1 51.08 -1 47 C-0.01 47.33 0.98 47.66 2 48 C2.33 47.01 2.66 46.02 3 45 C3.99 45.495 3.99 45.495 5 46 C5.33 44.02 5.66 42.04 6 40 C7.485 40.495 7.485 40.495 9 41 C8.34 41 7.68 41 7 41 C7.99 43.97 7.99 43.97 9 47 C10.3303125 46.6596875 10.3303125 46.6596875 11.6875 46.3125 C15 46 15 46 17.875 47.125 C20 49 20 49 20.8125 51.375 C19.6677679 55.07336526 17.70198686 56.08875555 14.390625 57.9296875 C2.61065219 63.20372762 -12.06264356 62.19056957 -24 58 C-27 56 -27 56 -27.5 53.625 C-27 51 -27 51 -24.9375 48.75 C-21.55735774 46.73629823 -18.89342625 46.30536676 -15 46 C-15 45.34 -15 44.68 -15 44 C-15.928125 43.690625 -16.85625 43.38125 -17.8125 43.0625 C-19.875 42.375 -21.9375 41.6875 -24 41 C-29.59089133 42.61235443 -34.46164258 45.32023696 -38 50 C-38.83356413 52.54412036 -38.83356413 52.54412036 -38 55 C-33.95318559 59.16944514 -28.79167677 61.45380237 -23.125 62.5625 C-22.42375 62.706875 -21.7225 62.85125 -21 63 C-20.67 63.66 -20.34 64.32 -20 65 C-17.87423218 65.46651207 -17.87423218 65.46651207 -15.4375 65.625 C-14.61121094 65.69976562 -13.78492188 65.77453125 -12.93359375 65.8515625 C-11.97646484 65.92503906 -11.97646484 65.92503906 -11 66 C-10.6872204 70.58148498 -10.4320351 75.16440609 -10.1875 79.75 C-10.09791016 81.05195313 -10.00832031 82.35390625 -9.91601562 83.6953125 C-9.85478516 84.94570312 -9.79355469 86.19609375 -9.73046875 87.484375 C-9.66239014 88.63647461 -9.59431152 89.78857422 -9.52416992 90.97558594 C-10 94 -10 94 -12.5168457 96.40722656 C-13.33628662 96.9328418 -14.15572754 97.45845703 -15 98 C-20.17914755 95.71578179 -24.00246824 92.71460861 -28.1875 89 C-28.84314941 88.42330566 -29.49879883 87.84661133 -30.17431641 87.25244141 C-53.71869127 66.36176285 -53.71869127 66.36176285 -59 55 C-59.12552212 49.0251473 -55.56267227 45.12115625 -52.0625 40.625 C-51.51142578 39.88894531 -50.96035156 39.15289062 -50.39257812 38.39453125 C-47.36245292 34.42554587 -47.36245292 34.42554587 -46 33 C-45.34 33 -44.68 33 -44 33 C-43.75032471 32.42652832 -43.50064941 31.85305664 -43.2434082 31.26220703 C-40.78807337 26.79506928 -36.77752261 23.44258281 -33.1875 19.875 C-32.33615479 19.02566895 -31.48480957 18.17633789 -30.60766602 17.30126953 C-10.04339949 -2.93953156 -10.04339949 -2.93953156 0 0 Z " fill="#05277E" transform="translate(90,139)"/>
<path d="M0 0 C7.59 0 15.18 0 23 0 C23 21.45 23 42.9 23 65 C15.74 65 8.48 65 1 65 C0 64 0 64 -0.12025452 61.45005798 C-0.11803391 60.31532547 -0.11581329 59.18059296 -0.11352539 58.01147461 C-0.11344986 56.73022202 -0.11337433 55.44896942 -0.11329651 54.12889099 C-0.10818909 52.72004152 -0.10297309 51.31119244 -0.09765625 49.90234375 C-0.09579202 48.46887766 -0.09436814 47.03541093 -0.09336853 45.60194397 C-0.08954372 41.82240043 -0.07971377 38.0428951 -0.06866455 34.2633667 C-0.05844963 30.40930702 -0.05387074 26.55524118 -0.04882812 22.70117188 C-0.03809145 15.13409512 -0.02049497 7.56705777 0 0 Z " fill="#03267C" transform="translate(181,133)"/>
<path d="M0 0 C7.61068359 3.8053418 13.81486326 9.25011363 20 15 C21.30921987 16.12881556 22.62166202 17.25390604 23.9375 18.375 C33.52994302 26.76361053 42.05574094 36.08381583 49.875 46.125 C50.63554687 47.09695312 51.39609375 48.06890625 52.1796875 49.0703125 C54.14633281 52.23551419 54.82093234 54.29429422 55 58 C52.7914068 67.20247168 44.6126229 74.54917926 38.45874023 81.35009766 C37.17563281 82.80135121 35.95705099 84.30911828 34.75 85.82421875 C32.7471641 88.31435177 30.5155547 90.03664023 28 92 C26.32907622 93.66239866 24.66305787 95.32973234 23 97 C19.52538447 100.29249775 16.0074958 103.52914923 12.43652344 106.71679688 C11.20297321 107.81869014 9.97938174 108.93171423 8.7578125 110.046875 C4.98298427 113.23046507 1.66448598 115.19304401 -3.3828125 114.84375 C-13.08934337 111.71448035 -21.67910253 102.77754961 -29 96 C-30.28909583 94.89283301 -31.58075927 93.78864837 -32.875 92.6875 C-41.79688632 84.86532929 -49.75108276 76.38449037 -57 67 C-57.47695313 66.401875 -57.95390625 65.80375 -58.4453125 65.1875 C-61.05056885 61.68953343 -61.40007269 59.29411359 -61 55 C-58.86017113 50.97208684 -55.86432865 47.5390769 -53 44 C-52.58733887 43.484375 -52.17467773 42.96875 -51.74951172 42.4375 C-45.40710822 34.56915906 -38.4920171 27.29432246 -31.375 20.125 C-30.59987061 19.34060547 -29.82474121 18.55621094 -29.02612305 17.74804688 C-9.62181352 -1.55190541 -9.62181352 -1.55190541 0 0 Z M-26.1796875 20.3046875 C-27.45425847 21.53528545 -28.72771253 22.76704135 -30 24 C-30.61004883 24.58813477 -31.22009766 25.17626953 -31.84863281 25.78222656 C-33.55274884 27.43037819 -35.24748836 29.08739949 -36.9375 30.75 C-37.45159424 31.25096191 -37.96568848 31.75192383 -38.49536133 32.26806641 C-39.70341326 33.47339325 -40.85769495 34.73219029 -42 36 C-42 36.66 -42 37.32 -42 38 C-43.485 38.495 -43.485 38.495 -45 39 C-47.10971899 41.20582583 -48.83018678 43.72196882 -50.625 46.1875 C-51.37910156 47.1784668 -51.37910156 47.1784668 -52.1484375 48.18945312 C-54.94569046 51.99807846 -57.14593778 55.09781735 -57 60 C-54.48038491 64.68636026 -50.90766489 68.66968122 -47.4375 72.6875 C-46.9122876 73.2961792 -46.3870752 73.9048584 -45.84594727 74.53198242 C-37.6452616 83.93847033 -28.80548758 92.27205837 -19 100 C-17.89795453 100.92496069 -16.79776106 101.85213144 -15.69921875 102.78125 C-14.57089579 103.70904315 -13.44199954 104.63613959 -12.3125 105.5625 C-11.80219238 106.004729 -11.29188477 106.44695801 -10.76611328 106.90258789 C-7.85541257 109.2388694 -5.54967601 110.31289507 -1.87890625 110.4609375 C2.03637443 109.99567756 3.47324118 109.59150324 6.375 107.0625 C7.12007813 106.42828125 7.86515625 105.7940625 8.6328125 105.140625 C9.41398437 104.43421875 10.19515625 103.7278125 11 103 C11.86367187 102.23171875 12.72734375 101.4634375 13.6171875 100.671875 C15.30112249 99.1628294 16.97651123 97.64415716 18.640625 96.11328125 C21.02478901 93.97779659 23.49597904 91.99240206 26 90 C30.25653515 85.96749302 34.4296851 81.66095865 38 77 C38 76.34 38 75.68 38 75 C38.66 75 39.32 75 40 75 C48.27626252 66.31188348 48.27626252 66.31188348 51.82421875 55.37109375 C49.91869141 49.88931605 45.39461988 45.67539478 41.45605469 41.54296875 C39.47842848 39.4472951 37.62677308 37.24847324 35.75 35.0625 C27.40959628 25.90440964 18.13483084 17.5377273 8.5625 9.6875 C8.02020752 9.22545166 7.47791504 8.76340332 6.91918945 8.28735352 C-6.35455526 -2.27705107 -16.7398149 11.26897211 -26.1796875 20.3046875 Z " fill="#E1E9F6" transform="translate(88,134)"/>
<path d="M0 0 C22.77 0 45.54 0 69 0 C69 4.29 69 8.58 69 13 C54.15 13 39.3 13 24 13 C24 17.62 24 22.24 24 27 C30.93 27 37.86 27 45 27 C45 27.33 45 27.66 45 28 C37.74 28 30.48 28 23 28 C21.46733418 24.93466836 21.89723529 21.73245728 21.9375 18.375 C21.94201172 17.66859375 21.94652344 16.9621875 21.95117188 16.234375 C21.96296125 14.48954725 21.98089676 12.744763 22 11 C22.804375 10.690625 23.60875 10.38125 24.4375 10.0625 C26.89080405 9.23664655 26.89080405 9.23664655 28 8 C29.34267413 7.91368126 30.68974322 7.89293527 32.03515625 7.90234375 C32.84404297 7.90556641 33.65292969 7.90878906 34.48632812 7.91210938 C35.33646484 7.92048828 36.18660156 7.92886719 37.0625 7.9375 C37.91650391 7.94201172 38.77050781 7.94652344 39.65039062 7.95117188 C41.76695663 7.96299627 43.88348685 7.98093231 46 8 C46 8.66 46 9.32 46 10 C46.99 10 47.98 10 49 10 C50.01540112 5.89776415 50.01540112 5.89776415 49 2 C33.16 1.67 17.32 1.34 1 1 C1 22.12 1 43.24 1 65 C23.11 65 45.22 65 68 65 C67.505 60.545 67.505 60.545 67 56 C52.81 55.67 38.62 55.34 24 55 C24 54.34 24 53.68 24 53 C30.24795675 52.97472876 36.49590041 52.95716656 42.74389648 52.94506836 C44.87118014 52.94002702 46.99846031 52.93319409 49.12573242 52.92456055 C52.17627826 52.91248621 55.22677845 52.90676986 58.27734375 52.90234375 C59.71327126 52.89460182 59.71327126 52.89460182 61.1782074 52.88670349 C62.49946373 52.88659019 62.49946373 52.88659019 63.84741211 52.88647461 C64.62684677 52.884254 65.40628143 52.88203339 66.20933533 52.87974548 C68 53 68 53 69 54 C69 57.96 69 61.92 69 66 C46.23 66 23.46 66 0 66 C0 44.22 0 22.44 0 0 Z " fill="#032679" transform="translate(219,132)"/>
<path d="M0 0 C0.763125 0.37125 1.52625 0.7425 2.3125 1.125 C2.869375 1.41375 3.42625 1.7025 4 2 C4 2.66 4 3.32 4 4 C3.37351562 4.19335938 2.74703125 4.38671875 2.1015625 4.5859375 C1.28429687 4.84632813 0.46703125 5.10671875 -0.375 5.375 C-1.18710938 5.63023437 -1.99921875 5.88546875 -2.8359375 6.1484375 C-5.16459185 6.89854283 -5.16459185 6.89854283 -7 9 C-7.64767793 11.57061311 -7.64767793 11.57061311 -8 14 C-6.62708132 14.48509793 -5.25153297 14.96275513 -3.875 15.4375 C-3.10929687 15.70433594 -2.34359375 15.97117188 -1.5546875 16.24609375 C10.40082263 19.77424888 24.62986448 19.26621866 35.8203125 13.5625 C36.53960937 13.046875 37.25890625 12.53125 38 12 C38.41780879 9.37305578 38.41780879 9.37305578 38 7 C34.5980513 4.90649311 31.94727588 4.82057837 28 5 C27.34 3.02 26.68 1.04 26 -1 C30.69023454 -0.43393721 35.34500026 0.18537505 40 1 C39.34 1.33 38.68 1.66 38 2 C38 2.66 38 3.32 38 4 C38.804375 4.309375 39.60875 4.61875 40.4375 4.9375 C43 6 43 6 44 7 C44.4375 9.75 44.4375 9.75 44 13 C39.23999736 18.71200316 32.23041512 21.02776974 25 22 C20.41505173 22.31979598 15.84526569 22.41124134 11.25 22.4375 C10.08960205 22.4475708 8.9292041 22.4576416 7.73364258 22.46801758 C-2.2706505 22.36689167 -10.46969548 20.21309969 -18.9375 14.75 C-20 13 -20 13 -20.1875 9.6875 C-18.52421122 4.52255063 -15.58487488 2.65484483 -11 0 C-6.49599044 -2.11953391 -4.4039629 -2.31787521 0 0 Z " fill="#EAF1F9" transform="translate(71,181)"/>
<path d="M0 0 C0.66 0 1.32 0 2 0 C3.34466186 3.24542723 4.6737175 6.49702334 6 9.75 C6.3815625 10.67039063 6.763125 11.59078125 7.15625 12.5390625 C7.5171875 13.42851562 7.878125 14.31796875 8.25 15.234375 C8.58515625 16.05131836 8.9203125 16.86826172 9.265625 17.70996094 C10 20 10 20 10 24 C8.02 24 6.04 24 4 24 C4.15847412 24.56170898 4.31694824 25.12341797 4.48022461 25.70214844 C5.02188362 28.09674429 5.20641474 30.31438553 5.31640625 32.765625 C5.35830078 33.65507812 5.40019531 34.54453125 5.44335938 35.4609375 C5.48267578 36.38132813 5.52199219 37.30171875 5.5625 38.25 C5.60568359 39.18585938 5.64886719 40.12171875 5.69335938 41.0859375 C5.7991805 43.39048641 5.90126557 45.69513839 6 48 C3.36 48 0.72 48 -2 48 C-2 40.41 -2 32.82 -2 25 C-3.65 25 -5.3 25 -7 25 C-5.80565506 18.92874657 -4.13788804 13.34836006 -1.90234375 7.578125 C-1.02112271 5.06035059 -0.457874 2.62451487 0 0 Z " fill="#ECF2F8" transform="translate(83,150)"/>
<path d="M0 0 C22.77 0 45.54 0 69 0 C69 4.29 69 8.58 69 13 C54.15 13 39.3 13 24 13 C24 12.67 24 12.34 24 12 C38.52 12 53.04 12 68 12 C68 8.37 68 4.74 68 1 C45.89 1 23.78 1 1 1 C1 22.12 1 43.24 1 65 C22.78 64.67 44.56 64.34 67 64 C67.33 61.03 67.66 58.06 68 55 C53.15 55 38.3 55 23 55 C23 50.05 23 45.1 23 40 C23.33 40 23.66 40 24 40 C24 44.62 24 49.24 24 54 C38.85 54 53.7 54 69 54 C69 58.29 69 62.58 69 67 C46.23 67 23.46 67 0 67 C0 44.89 0 22.78 0 0 Z " fill="#404851" transform="translate(302,132)"/>
<path d="M0 0 C3.04606568 2.9478055 5.8917832 6.00104325 8.6875 9.1875 C19.22604047 20.94406273 30.36725277 32.48370143 43 42 C41.1875 43.0625 41.1875 43.0625 39 44 C38.01 43.67 37.02 43.34 36 43 C35.505 43.99 35.505 43.99 35 45 C34.57291748 44.5373877 34.14583496 44.07477539 33.70581055 43.59814453 C13.78311824 19.47924099 13.78311824 19.47924099 -12.5 5.75 C-15.6845203 5.97746574 -17.36015235 6.3104975 -20 8 C-19.67 6.68 -19.34 5.36 -19 4 C-17.27185839 3.80327635 -15.54240803 3.61803201 -13.8125 3.4375 C-12.84957031 3.33308594 -11.88664062 3.22867188 -10.89453125 3.12109375 C-8.02534118 3.00106016 -5.75001434 3.18427639 -3 4 C-2.67 4.66 -2.34 5.32 -2 6 C-1.34 6 -0.68 6 0 6 C0.66 7.65 1.32 9.3 2 11 C3.32 10.67 4.64 10.34 6 10 C4.7934375 8.9171875 4.7934375 8.9171875 3.5625 7.8125 C0.97707928 4.97484311 0.31957187 3.72833853 0 0 Z " fill="#0F296C" transform="translate(97,129)"/>
<path d="M0 0 C0 0.66 0 1.32 0 2 C-0.64291992 2.24476074 -1.28583984 2.48952148 -1.94824219 2.74169922 C-4.15307548 3.79305298 -4.15307548 3.79305298 -4.63769531 5.87939453 C-4.70053711 6.62302246 -4.76337891 7.36665039 -4.828125 8.1328125 C-4.94414063 9.34130859 -4.94414063 9.34130859 -5.0625 10.57421875 C-5.1553125 11.83685547 -5.1553125 11.83685547 -5.25 13.125 C-5.36601563 14.39923828 -5.36601563 14.39923828 -5.484375 15.69921875 C-5.67303293 17.79803818 -5.83870349 19.8989007 -6 22 C-6.33 22 -6.66 22 -7 22 C-7.33 23.65 -7.66 25.3 -8 27 C-11.94867872 27.86870932 -14.35372685 28.24076843 -18.1875 26.8125 C-20.94488404 25.03551918 -23.05362363 23.64707186 -25 21 C-24.87769669 17.49397179 -24.23168018 16.23408517 -21.7421875 13.71875 C-20.79601562 12.9865625 -19.84984375 12.254375 -18.875 11.5 C-17.88113281 10.72527344 -16.88726562 9.95054687 -15.86328125 9.15234375 C-14.91839844 8.44207031 -13.97351562 7.73179687 -13 7 C-12.29230469 6.46503906 -11.58460937 5.93007812 -10.85546875 5.37890625 C-3.52930267 0 -3.52930267 0 0 0 Z " fill="#04257E" transform="translate(33,173)"/>
<path d="M0 0 C12.625 -0.25 12.625 -0.25 16 2 C16.3125 5 16.3125 5 16 8 C15.34 8.66 14.68 9.32 14 10 C14.99 10.66 15.98 11.32 17 12 C17.375 15 17.375 15 17 18 C13.2632157 20.49118953 11.25548181 20.2065226 6.8125 20.125 C4.564375 20.08375 2.31625 20.0425 0 20 C0 13.4 0 6.8 0 0 Z " fill="#243864" transform="translate(347,208)"/>
<path d="M0 0 C12.54 0 25.08 0 38 0 C38 2.31 38 4.62 38 7 C28.1 7.33 18.2 7.66 8 8 C7.67 8.66 7.34 9.32 7 10 C3.7 10 0.4 10 -3 10 C-3 5 -3 5 -1 3 C-0.67 2.01 -0.34 1.02 0 0 Z " fill="#03257E" transform="translate(415,133)"/>
<path d="M0 0 C22.77 0 45.54 0 69 0 C69 0.33 69 0.66 69 1 C46.56 1 24.12 1 1 1 C1 22.12 1 43.24 1 65 C23.11 65 45.22 65 68 65 C67.505 60.545 67.505 60.545 67 56 C52.81 55.67 38.62 55.34 24 55 C24 54.34 24 53.68 24 53 C30.24795675 52.97472876 36.49590041 52.95716656 42.74389648 52.94506836 C44.87118014 52.94002702 46.99846031 52.93319409 49.12573242 52.92456055 C52.17627826 52.91248621 55.22677845 52.90676986 58.27734375 52.90234375 C59.71327126 52.89460182 59.71327126 52.89460182 61.1782074 52.88670349 C62.49946373 52.88659019 62.49946373 52.88659019 63.84741211 52.88647461 C64.62684677 52.884254 65.40628143 52.88203339 66.20933533 52.87974548 C68 53 68 53 69 54 C69 57.96 69 61.92 69 66 C46.23 66 23.46 66 0 66 C0 44.22 0 22.44 0 0 Z " fill="#303F5C" transform="translate(219,132)"/>
<path d="M0 0 C0.99 0.33 1.98 0.66 3 1 C2.34 1 1.68 1 1 1 C1.66 2.98 2.32 4.96 3 7 C4.3303125 6.6596875 4.3303125 6.6596875 5.6875 6.3125 C9 6 9 6 11.875 7.125 C14 9 14 9 14.8125 11.375 C13.6677679 15.07336526 11.70198686 16.08875555 8.390625 17.9296875 C-0.01502633 21.69300198 -8.96276432 21.23439516 -18 21 C-17.34 20.67 -16.68 20.34 -16 20 C-16 17.03 -16 14.06 -16 11 C-15.67 11 -15.34 11 -15 11 C-15 13.64 -15 16.28 -15 19 C-12.36 19 -9.72 19 -7 19 C-7 15.04 -7 11.08 -7 7 C-6.01 7.33 -5.02 7.66 -4 8 C-3.67 7.01 -3.34 6.02 -3 5 C-2.34 5.33 -1.68 5.66 -1 6 C-0.67 4.02 -0.34 2.04 0 0 Z " fill="#123280" transform="translate(96,179)"/>
<path d="M0 0 C1.32 0 2.64 0 4 0 C4.33 0.66 4.66 1.32 5 2 C5.66 1.34 6.32 0.68 7 0 C9.4375 -0.3125 9.4375 -0.3125 12 0 C13.8125 1.5 13.8125 1.5 15 3 C15.66 2.01 16.32 1.02 17 0 C20 -0.3125 20 -0.3125 23 0 C25 2 25 2 25.1953125 5.2578125 C25.17210937 6.53398437 25.14890625 7.81015625 25.125 9.125 C25.10695313 10.40632812 25.08890625 11.68765625 25.0703125 13.0078125 C25.04710937 13.99523437 25.02390625 14.98265625 25 16 C23.35 16 21.7 16 20 16 C19.67 12.37 19.34 8.74 19 5 C18.34 5 17.68 5 17 5 C15.78306124 7.43387753 15.68040104 9.41838846 15.4375 12.125 C15.35371094 13.03507813 15.26992188 13.94515625 15.18359375 14.8828125 C15.12300781 15.58148438 15.06242187 16.28015625 15 17 C13.35 17 11.7 17 10 17 C9.67 13.04 9.34 9.08 9 5 C8.01 5.33 7.02 5.66 6 6 C5.67 9.63 5.34 13.26 5 17 C3.35 17 1.7 17 0 17 C0 11.39 0 5.78 0 0 Z " fill="#CE462B" transform="translate(387,239)"/>
<path d="M0 0 C1.65 0 3.3 0 5 0 C5 7.26 5 14.52 5 22 C3.68 22 2.36 22 1 22 C0.67 21.34 0.34 20.68 0 20 C-0.391875 20.515625 -0.78375 21.03125 -1.1875 21.5625 C-3 23 -3 23 -5.4375 23 C-8.87955492 21.65675905 -10.10731791 20.15447015 -12 17 C-12.63947837 13.16312978 -12.29326913 11.51886077 -10.375 8.125 C-8 6 -8 6 -4.8125 5.625 C-2 6 -2 6 -1 7 C-0.67 4.69 -0.34 2.38 0 0 Z " fill="#203665" transform="translate(283,206)"/>
<path d="M0 0 C1.65 0 3.3 0 5 0 C5 2.64 5 5.28 5 8 C7.31 8 9.62 8 12 8 C12 5.36 12 2.72 12 0 C13.98 0 15.96 0 18 0 C18 6.93 18 13.86 18 21 C16.35 21 14.7 21 13 21 C12 20 12 20 11.9375 16.4375 C11.958125 15.303125 11.97875 14.16875 12 13 C9.69 13 7.38 13 5 13 C5 15.64 5 18.28 5 21 C3.35 21 1.7 21 0 21 C0 14.07 0 7.14 0 0 Z " fill="#D14D28" transform="translate(289,235)"/>
<path d="M0 0 C1.98 0 3.96 0 6 0 C6.33 4.95 6.66 9.9 7 15 C8.65 15 10.3 15 12 15 C12.33 10.05 12.66 5.1 13 0 C14.98 0 16.96 0 19 0 C19.05411124 2.41696872 19.09372278 4.83271787 19.125 7.25 C19.15013672 8.27287109 19.15013672 8.27287109 19.17578125 9.31640625 C19.21201359 13.04833734 19.1460384 15.87291547 17 19 C14.03077268 21.28402102 10.67269492 21.56922333 6.97265625 21.41015625 C4.21817264 20.83744184 2.4818705 19.59987049 0.83203125 17.33203125 C-1.0986894 11.92057479 -0.32432737 5.6649181 0 0 Z " fill="#CE442A" transform="translate(310,235)"/>
<path d="M0 0 C3.3 0 6.6 0 10 0 C10.33 7.92 10.66 15.84 11 24 C7.37 24 3.74 24 0 24 C0 16.08 0 8.16 0 0 Z " fill="#E9EEF6" transform="translate(80,205)"/>
<path d="M0 0 C5.28 0 10.56 0 16 0 C16 1.32 16 2.64 16 4 C12.37 4 8.74 4 5 4 C5 5.32 5 6.64 5 8 C7.97 8 10.94 8 14 8 C14 9.32 14 10.64 14 12 C11.03 12 8.06 12 5 12 C5 13.32 5 14.64 5 16 C8.63 16 12.26 16 16 16 C16 17.65 16 19.3 16 21 C10.72 21 5.44 21 0 21 C0 14.07 0 7.14 0 0 Z " fill="#DB3924" transform="translate(270,235)"/>
<path d="M0 0 C2.7668316 0.52136192 4.29481614 1.20452481 6.09375 3.39453125 C6.09375 4.71453125 6.09375 6.03453125 6.09375 7.39453125 C4.44375 7.39453125 2.79375 7.39453125 1.09375 7.39453125 C0.76375 6.73453125 0.43375 6.07453125 0.09375 5.39453125 C-1.57236905 5.35181025 -3.24007885 5.35389293 -4.90625 5.39453125 C-6.80113952 7.28942077 -6.08644112 9.96592271 -6.13671875 12.484375 C-6.0765292 14.63579485 -6.0765292 14.63579485 -3.90625 16.39453125 C-1.33084787 16.22945479 -1.33084787 16.22945479 1.09375 15.39453125 C1.42375 14.73453125 1.75375 14.07453125 2.09375 13.39453125 C1.10375 13.39453125 0.11375 13.39453125 -0.90625 13.39453125 C-0.90625 12.40453125 -0.90625 11.41453125 -0.90625 10.39453125 C1.73375 10.39453125 4.37375 10.39453125 7.09375 10.39453125 C7.09375 14.02453125 7.09375 17.65453125 7.09375 21.39453125 C5.77375 21.06453125 4.45375 20.73453125 3.09375 20.39453125 C2.76375 19.73453125 2.43375 19.07453125 2.09375 18.39453125 C1.7225 18.88953125 1.35125 19.38453125 0.96875 19.89453125 C-0.90625 21.39453125 -0.90625 21.39453125 -3.84375 21.76953125 C-7.20644945 21.35777213 -8.53361644 20.76716481 -10.90625 18.39453125 C-12.43330058 13.81337952 -13.00729333 9.03703523 -11.10546875 4.47265625 C-8.07483521 0.09854599 -4.93059321 -0.35335918 0 0 Z " fill="#CB3C2D" transform="translate(259.90625,234.60546875)"/>
<path d="M0 0 C11.71428571 -0.42857143 11.71428571 -0.42857143 17 3 C17 4.65 17 6.3 17 8 C15.35 8.33 13.7 8.66 12 9 C11.67 7.68 11.34 6.36 11 5 C8.69 4.67 6.38 4.34 4 4 C4 5.65 4 7.3 4 9 C5.98 9 7.96 9 10 9 C10.33 9.99 10.66 10.98 11 12 C9.02 12 7.04 12 5 12 C5 13.32 5 14.64 5 16 C7.31 16 9.62 16 12 16 C12 14.68 12 13.36 12 12 C13.65 12 15.3 12 17 12 C17.125 14.875 17.125 14.875 17 18 C15 20 15 20 11.5234375 20.1953125 C10.14047367 20.18387695 8.75761943 20.15791258 7.375 20.125 C3.724375 20.063125 3.724375 20.063125 0 20 C0 13.4 0 6.8 0 0 Z " fill="#CD3929" transform="translate(339,235)"/>
<path d="M0 0 C0.86625 -0.00773438 1.7325 -0.01546875 2.625 -0.0234375 C5.43606469 0.44815559 6.35668861 1.0722018 8 3.375 C8 4.365 8 5.355 8 6.375 C6.68 6.705 5.36 7.035 4 7.375 C3.67 6.715 3.34 6.055 3 5.375 C-0.02934491 4.71727572 -0.02934491 4.71727572 -3 4.375 C-3 5.365 -3 6.355 -3 7.375 C-2.38511719 7.48457031 -1.77023438 7.59414062 -1.13671875 7.70703125 C-0.32847656 7.86558594 0.47976562 8.02414063 1.3125 8.1875 C2.11300781 8.33832031 2.91351563 8.48914063 3.73828125 8.64453125 C6.2753235 9.46392141 7.36565707 10.292115 9 12.375 C9.5 14.8125 9.5 14.8125 9 17.375 C6.25985609 20.44728257 4.58796759 21.29100463 0.5 21.875 C-3.54347727 21.29736039 -5.21679254 20.3268867 -8 17.375 C-8 16.385 -8 15.395 -8 14.375 C-6.35 14.375 -4.7 14.375 -3 14.375 C-2.67 15.035 -2.34 15.695 -2 16.375 C-0.35 16.375 1.3 16.375 3 16.375 C3.33 15.385 3.66 14.395 4 13.375 C2.4221875 13.25125 2.4221875 13.25125 0.8125 13.125 C-3.33675198 12.30875371 -5.15835073 11.47498102 -8 8.375 C-8.5 5.8125 -8.5 5.8125 -8 3.375 C-5.65417589 0.23971585 -3.82732494 -0.03417254 0 0 Z " fill="#152F6B" transform="translate(229,207.625)"/>
<path d="M0 0 C1.65 0 3.3 0 5 0 C5.33 2.64 5.66 5.28 6 8 C6.66 7.34 7.32 6.68 8 6 C10.71269629 5.65221842 12.32286679 5.56034479 14.6484375 7.0703125 C16.72420477 10.03398022 16.2854277 12.62946032 16.1875 16.1875 C16.16042969 17.45980469 16.13335937 18.73210937 16.10546875 20.04296875 C16.07066406 21.01878906 16.03585937 21.99460938 16 23 C14.35 23 12.7 23 11 23 C10.67 19.04 10.34 15.08 10 11 C9.01 11 8.02 11 7 11 C5.78306124 13.43387753 5.68040104 15.41838846 5.4375 18.125 C5.31181641 19.49011719 5.31181641 19.49011719 5.18359375 20.8828125 C5.12300781 21.58148438 5.06242187 22.28015625 5 23 C3.35 23 1.7 23 0 23 C0 15.41 0 7.82 0 0 Z " fill="#D13F2C" transform="translate(359,233)"/>
<path d="M0 0 C1.65 0 3.3 0 5 0 C5.33 2.31 5.66 4.62 6 7 C6.33 6.67 6.66 6.34 7 6 C9.875 5.6875 9.875 5.6875 13 6 C15.40352638 8.3254536 15.96731717 9.6635847 16.29296875 13.015625 C16.25816406 14.08296875 16.22335937 15.1503125 16.1875 16.25 C16.16042969 17.32765625 16.13335937 18.4053125 16.10546875 19.515625 C16.07066406 20.33546875 16.03585937 21.1553125 16 22 C14.35 22 12.7 22 11 22 C10.67 18.37 10.34 14.74 10 11 C8.68 11 7.36 11 6 11 C5.67 14.63 5.34 18.26 5 22 C3.35 22 1.7 22 0 22 C0 14.74 0 7.48 0 0 Z " fill="#364458" transform="translate(435,206)"/>
<path d="M0 0 C1.97265625 0.36328125 1.97265625 0.36328125 3.71484375 1.46484375 C5.5997447 4.30975636 5.26013711 6.68475901 5.16015625 10.05078125 C5.13308594 11.23027344 5.10601562 12.40976563 5.078125 13.625 C5.04332031 14.52863281 5.00851562 15.43226563 4.97265625 16.36328125 C3.65265625 16.36328125 2.33265625 16.36328125 0.97265625 16.36328125 C0.64265625 15.70328125 0.31265625 15.04328125 -0.02734375 14.36328125 C-0.41921875 14.85828125 -0.81109375 15.35328125 -1.21484375 15.86328125 C-3.02734375 17.36328125 -3.02734375 17.36328125 -5.58984375 17.67578125 C-8.02734375 17.36328125 -8.02734375 17.36328125 -10.02734375 15.36328125 C-10.46484375 12.92578125 -10.46484375 12.92578125 -10.02734375 10.36328125 C-6.73844796 7.63819616 -4.24446932 7.00181334 -0.02734375 7.36328125 C-0.02734375 6.37328125 -0.02734375 5.38328125 -0.02734375 4.36328125 C-0.76984375 4.69328125 -1.51234375 5.02328125 -2.27734375 5.36328125 C-5.02734375 6.36328125 -5.02734375 6.36328125 -9.02734375 6.36328125 C-7.87227492 0.5879371 -5.75560368 0.13985579 0 0 Z " fill="#CC3D2D" transform="translate(437.02734375,238.63671875)"/>
<path d="M0 0 C0.79148437 -0.02578125 1.58296875 -0.0515625 2.3984375 -0.078125 C4.625 0.25 4.625 0.25 6.40234375 1.34765625 C8.23606446 4.20076164 7.91192732 6.59011367 7.8125 9.9375 C7.78542969 11.11699219 7.75835937 12.29648438 7.73046875 13.51171875 C7.69566406 14.41535156 7.66085937 15.31898438 7.625 16.25 C6.305 16.25 4.985 16.25 3.625 16.25 C3.295 15.59 2.965 14.93 2.625 14.25 C2.25375 14.765625 1.8825 15.28125 1.5 15.8125 C-0.375 17.25 -0.375 17.25 -3.5625 16.9375 C-4.490625 16.710625 -5.41875 16.48375 -6.375 16.25 C-7.70433579 10.81180812 -7.70433579 10.81180812 -6.3125 8.4375 C-3.75725424 6.87138163 -1.3132396 6.69712342 1.625 6.25 C1.955 5.59 2.285 4.93 2.625 4.25 C-1.83 4.745 -1.83 4.745 -6.375 5.25 C-5.08426932 0.08707729 -4.9494249 0.09610534 0 0 Z " fill="#112B68" transform="translate(387.375,211.75)"/>
<path d="M0 0 C2.4375 1.125 2.4375 1.125 4 3 C4.25 6.1875 4.25 6.1875 4 9 C0.7 9 -2.6 9 -6 9 C-5.67 9.99 -5.34 10.98 -5 12 C-0.545 11.505 -0.545 11.505 4 11 C3 15 3 15 0 17 C-3.99800164 17.60839155 -5.52201252 17.33251303 -8.875 15 C-11.81148802 10.85436985 -11.7152453 9.00671711 -11 4 C-8.14969659 -0.56048545 -5.12186168 -0.64023271 0 0 Z " fill="#092675" transform="translate(302,212)"/>
<path d="M0 0 C2.75041475 2.74009424 5.48573381 5.4928478 8.19921875 8.26953125 C14.81332557 15.00434034 21.40349732 21.36388511 29 27 C28.01 27.66 27.02 28.32 26 29 C25.34 29.99 24.68 30.98 24 32 C16.33333333 24.33333333 8.66666667 16.66666667 1 9 C1.33 8.67 1.66 8.34 2 8 C1.34 7.67 0.68 7.34 0 7 C0.33 6.01 0.66 5.02 1 4 C0.61067144 1.85744207 0.61067144 1.85744207 0 0 Z " fill="#19306D" transform="translate(38,209)"/>
<path d="M0 0 C1.65 0 3.3 0 5 0 C5.33 0.66 5.66 1.32 6 2 C6.33 1.34 6.66 0.68 7 0 C10.375 -0.1875 10.375 -0.1875 14 0 C16.42130331 3.63195496 16.21022785 5.38349348 16.125 9.6875 C16.10695313 10.86699219 16.08890625 12.04648438 16.0703125 13.26171875 C16.04710937 14.16535156 16.02390625 15.06898438 16 16 C14.35 16 12.7 16 11 16 C11 12.04 11 8.08 11 4 C9.68 4.33 8.36 4.66 7 5 C6.67 8.63 6.34 12.26 6 16 C4.02 16 2.04 16 0 16 C0 10.72 0 5.44 0 0 Z " fill="#072776" transform="translate(398,212)"/>
<path d="M0 0 C1.32 0 2.64 0 4 0 C4.33 0.99 4.66 1.98 5 3 C5.66 2.01 6.32 1.02 7 0 C10.03161452 -0.38701462 12.07005815 -0.6120315 14.6796875 1.10546875 C16.65362112 3.9378883 16.28853777 6.28589513 16.1875 9.6875 C16.16042969 10.86699219 16.13335937 12.04648438 16.10546875 13.26171875 C16.07066406 14.16535156 16.03585937 15.06898438 16 16 C14.35 16 12.7 16 11 16 C10.67 12.37 10.34 8.74 10 5 C8.68 4.67 7.36 4.34 6 4 C5.67 7.96 5.34 11.92 5 16 C3.35 16 1.7 16 0 16 C0 10.72 0 5.44 0 0 Z " fill="#384458" transform="translate(309,212)"/>
<path d="M0 0 C1.65 0 3.3 0 5 0 C5.33 3.63 5.66 7.26 6 11 C7.32 10.67 8.64 10.34 10 10 C10.33 7.03 10.66 4.06 11 1 C12.32 1 13.64 1 15 1 C15 5.95 15 10.9 15 16 C14.01 16 13.02 16 12 16 C11.67 15.01 11.34 14.02 11 13 C10.01 14.485 10.01 14.485 9 16 C5.5 16.375 5.5 16.375 2 16 C-0.42130331 12.36804504 -0.21022785 10.61650652 -0.125 6.3125 C-0.09792969 4.54326172 -0.09792969 4.54326172 -0.0703125 2.73828125 C-0.04710937 1.83464844 -0.02390625 0.93101562 0 0 Z " fill="#1A3168" transform="translate(253,212)"/>
<path d="M0 0 C2 1.5 2 1.5 3 3 C2.67 3.99 2.34 4.98 2 6 C-2.455 5.01 -2.455 5.01 -7 4 C-6.67 6.64 -6.34 9.28 -6 12 C-4.68 12 -3.36 12 -2 12 C-1.67 11.34 -1.34 10.68 -1 10 C0.32 10 1.64 10 3 10 C2.6875 12.375 2.6875 12.375 2 15 C-1.51824511 17.34549674 -2.85775694 17.57991403 -7 17 C-9.86972996 15.00366611 -11.65210765 13.52770117 -12.44921875 10.02734375 C-12.63063966 6.6804408 -12.22262069 4.37103449 -10.5 1.5 C-6.74351164 -0.75389302 -4.35420619 -0.48380069 0 0 Z " fill="#2B3D5D" transform="translate(429,212)"/>
<path d="M0 0 C2.97 0 5.94 0 9 0 C9 4.29 9 8.58 9 13 C-4.53 13 -18.06 13 -32 13 C-31.34 12.01 -30.68 11.02 -30 10 C-27.31215183 9.66215904 -24.8428575 9.51107756 -22.1484375 9.48828125 C-21.37440582 9.47033005 -20.60037415 9.45237885 -19.80288696 9.43388367 C-17.32698033 9.37963608 -14.85126797 9.34583991 -12.375 9.3125 C-10.69788954 9.27933954 -9.02080477 9.24485107 -7.34375 9.20898438 C-3.22930659 9.12390183 0.88507777 9.05716047 5 9 C5 9.66 5 10.32 5 11 C5.99 11 6.98 11 8 11 C7.34 8.03 6.68 5.06 6 2 C4.02 1.67 2.04 1.34 0 1 C0 0.67 0 0.34 0 0 Z " fill="#2F405D" transform="translate(275,159)"/>
<path d="M0 0 C13.53 0 27.06 0 41 0 C41 3.96 41 7.92 41 12 C27.47 12 13.94 12 0 12 C0 11.67 0 11.34 0 11 C11.55 11 23.1 11 35 11 C35.33 9.02 35.66 7.04 36 5 C35.34 4.67 34.68 4.34 34 4 C34.66 3.01 35.32 2.02 36 1 C24.12 1 12.24 1 0 1 C0 0.67 0 0.34 0 0 Z " fill="#17336D" transform="translate(326,159)"/>
<path d="M0 0 C0.99 0 1.98 0 3 0 C3 1.32 3 2.64 3 4 C4.32 4 5.64 4 7 4 C7 5.32 7 6.64 7 8 C5.68 8 4.36 8 3 8 C3 10.64 3 13.28 3 16 C4.32 16 5.64 16 7 16 C6.67 17.65 6.34 19.3 6 21 C3.04938857 21.31898502 1.55901674 21.4433581 -0.8125 19.5625 C-2.57634638 15.75630517 -2.23816637 12.12821704 -2 8 C-2.66 8 -3.32 8 -4 8 C-4 6.68 -4 5.36 -4 4 C-2.68 4 -1.36 4 0 4 C0 2.68 0 1.36 0 0 Z " fill="#0E2C6B" transform="translate(331,208)"/>
<path d="M0 0 C0.99 0 1.98 0 3 0 C3 0.99 3 1.98 3 3 C4.32 3 5.64 3 7 3 C7 4.32 7 5.64 7 7 C5.68 7 4.36 7 3 7 C3 9.64 3 12.28 3 15 C4.32 15 5.64 15 7 15 C7 16.65 7 18.3 7 20 C1.51923077 20.36538462 1.51923077 20.36538462 -0.6875 18.8125 C-2.45312631 16.37425415 -2.30348915 14.78955493 -2.1875 11.8125 C-2.16042969 10.91144531 -2.13335937 10.01039063 -2.10546875 9.08203125 C-2.07066406 8.39496094 -2.03585937 7.70789063 -2 7 C-2.66 7 -3.32 7 -4 7 C-4 5.68 -4 4.36 -4 3 C-2.68 3 -1.36 3 0 3 C0 2.01 0 1.02 0 0 Z " fill="#D82A2A" transform="translate(418,236)"/>
<path d="M0 0 C0.99 0 1.98 0 3 0 C3 1.32 3 2.64 3 4 C3.99 4 4.98 4 6 4 C6 5.32 6 6.64 6 8 C5.01 8 4.02 8 3 8 C3 10.64 3 13.28 3 16 C3.99 16 4.98 16 6 16 C6 17.65 6 19.3 6 21 C1.50798722 21.36421725 1.50798722 21.36421725 -0.65625 19.8125 C-2.46278055 17.37578437 -2.30430752 15.81055979 -2.1875 12.8125 C-2.16042969 11.91144531 -2.13335937 11.01039063 -2.10546875 10.08203125 C-2.07066406 9.39496094 -2.03585938 8.70789063 -2 8 C-2.66 8 -3.32 8 -4 8 C-4 6.68 -4 5.36 -4 4 C-3.01 4 -2.02 4 -1 4 C-0.67 2.68 -0.34 1.36 0 0 Z " fill="#0E2969" transform="translate(244,208)"/>
<path d="M0 0 C1.98 0 3.96 0 6 0 C6 7.59 6 15.18 6 23 C4.35 23 2.7 23 1 23 C0.24833087 15.30881404 -0.13690844 7.72772107 0 0 Z " fill="#CD472D" transform="translate(445,233)"/>
<path d="M0 0 C15.70362179 -0.11531128 31.32509099 -0.00090639 47 1 C47 1.33 47 1.66 47 2 C32.15 2 17.3 2 2 2 C2 6.62 2 11.24 2 16 C8.93 16 15.86 16 23 16 C23 16.33 23 16.66 23 17 C15.74 17 8.48 17 1 17 C-0.53266582 13.93466836 -0.10276471 10.73245728 -0.0625 7.375 C-0.05798828 6.66859375 -0.05347656 5.9621875 -0.04882812 5.234375 C-0.03703875 3.48954725 -0.01910324 1.744763 0 0 Z " fill="#3B4559" transform="translate(241,143)"/>
<path d="M0 0 C1.65 0 3.3 0 5 0 C5.33 0.66 5.66 1.32 6 2 C6.33 1.34 6.66 0.68 7 0 C8.65 0 10.3 0 12 0 C12 1.65 12 3.3 12 5 C10.35 5.33 8.7 5.66 7 6 C6.67 9.3 6.34 12.6 6 16 C4.02 16 2.04 16 0 16 C0 10.72 0 5.44 0 0 Z " fill="#33425C" transform="translate(367,212)"/>
<path d="M0 0 C1.32 0 2.64 0 4 0 C4 1.98 4 3.96 4 6 C6.64 6.66 9.28 7.32 12 8 C11.04134491 5.66924071 11.04134491 5.66924071 8 4 C8.33 3.67 8.66 3.34 9 3 C8.34 2.67 7.68 2.34 7 2 C7 1.34 7 0.68 7 0 C9.31 0 11.62 0 14 0 C13.67 1.32 13.34 2.64 13 4 C13.66 4.33 14.32 4.66 15 5 C14.67 6.65 14.34 8.3 14 10 C1.33029613 10.3690205 1.33029613 10.3690205 -4 8 C-3.40339753 4.65902615 -2.36924875 2.45699871 0 0 Z " fill="#4A4D53" transform="translate(437,261)"/>
<path d="M0 0 C0.33 0 0.66 0 1 0 C1.33 3.3 1.66 6.6 2 10 C2.66 10 3.32 10 4 10 C4 10.66 4 11.32 4 12 C5.48199902 11.55090939 6.96055236 11.09043436 8.4375 10.625 C9.26121094 10.36976563 10.08492188 10.11453125 10.93359375 9.8515625 C13.17798016 9.19117773 13.17798016 9.19117773 14 7 C13.01 7 12.02 7 11 7 C11 6.01 11 5.02 11 4 C13.64 4 16.28 4 19 4 C19 7.63 19 11.26 19 15 C17.68 14.67 16.36 14.34 15 14 C14.67 13.34 14.34 12.68 14 12 C13.62875 12.495 13.2575 12.99 12.875 13.5 C11 15 11 15 8.0625 15.375 C4.69980055 14.96324088 3.37263356 14.37263356 1 12 C0.03929566 9.11788698 -0.10581883 7.30149956 -0.0625 4.3125 C-0.05347656 3.50425781 -0.04445312 2.69601563 -0.03515625 1.86328125 C-0.02355469 1.24839844 -0.01195312 0.63351563 0 0 Z " fill="#CC442B" transform="translate(248,241)"/>
<path d="M0 0 C0 0.66 0 1.32 0 2 C2.475 2.99 2.475 2.99 5 4 C5.1875 6.875 5.1875 6.875 5 10 C1.36804504 12.42130331 -0.38349348 12.21022785 -4.6875 12.125 C-5.86699219 12.10695312 -7.04648437 12.08890625 -8.26171875 12.0703125 C-9.16535156 12.04710937 -10.06898438 12.02390625 -11 12 C-11 8.7 -11 5.4 -11 2 C-10.01 2 -9.02 2 -8 2 C-8 3.98 -8 5.96 -8 8 C-5.36 7.67 -2.72 7.34 0 7 C-0.66868314 3.88667752 -0.66868314 3.88667752 -3.0625 2.8125 C-3.701875 2.544375 -4.34125 2.27625 -5 2 C-2 0 -2 0 0 0 Z " fill="#173068" transform="translate(359,216)"/>
<path d="M0 0 C5.28 0 10.56 0 16 0 C15.67 1.32 15.34 2.64 15 4 C15 3.01 15 2.02 15 1 C10.38 1 5.76 1 1 1 C1 6.94 1 12.88 1 19 C1.99 18.34 2.98 17.68 4 17 C4.25030977 14.41619823 4.25030977 14.41619823 4 12 C4.33 13.32 4.66 14.64 5 16 C8.63 16 12.26 16 16 16 C16 17.65 16 19.3 16 21 C10.72 21 5.44 21 0 21 C0 14.07 0 7.14 0 0 Z " fill="#CA4F2D" transform="translate(270,235)"/>
<path d="M0 0 C0.78375 0.04125 1.5675 0.0825 2.375 0.125 C2.705 1.115 3.035 2.105 3.375 3.125 C5.32103274 3.71570014 5.32103274 3.71570014 7.375 4.125 C8.035 4.785 8.695 5.445 9.375 6.125 C6.735 6.125 4.095 6.125 1.375 6.125 C1.375 7.115 1.375 8.105 1.375 9.125 C2.365 9.125 3.355 9.125 4.375 9.125 C4.045 10.115 3.715 11.105 3.375 12.125 C-1.027746 13.43392449 -1.027746 13.43392449 -3.4375 12.1875 C-5.38262371 8.80912725 -4.93135345 5.98505349 -4.625 2.125 C-2.625 0.125 -2.625 0.125 0 0 Z " fill="#FBB90F" transform="translate(257.625,238.875)"/>
<path d="M0 0 C2.31 0 4.62 0 7 0 C7.33 1.32 7.66 2.64 8 4 C6.02 4.99 6.02 4.99 4 6 C5.65 6.99 7.3 7.98 9 9 C8.67 9.99 8.34 10.98 8 12 C5.36 12 2.72 12 0 12 C-0.12375 11.195625 -0.2475 10.39125 -0.375 9.5625 C-0.684375 8.2940625 -0.684375 8.2940625 -1 7 C-1.66 6.67 -2.32 6.34 -3 6 C-3 4.68 -3 3.36 -3 2 C-2.01 2 -1.02 2 0 2 C0 1.34 0 0.68 0 0 Z " fill="#344260" transform="translate(351,212)"/>
<path d="M0 0 C2.4375 0.8125 2.4375 0.8125 4.4375 3.8125 C4.0625 7 4.0625 7 3.4375 9.8125 C-2.94957103 11.13811852 -2.94957103 11.13811852 -5.5625 9.75 C-7.07889353 6.81198754 -6.48543717 4.91093192 -5.5625 1.8125 C-2.5625 -0.1875 -2.5625 -0.1875 0 0 Z " fill="#CFDAEC" transform="translate(125.5625,245.1875)"/>
<path d="M0 0 C2.60174873 1.25891068 4.13379895 2.68287369 5.9375 4.9375 C5.9375 6.2575 5.9375 7.5775 5.9375 8.9375 C5.2775 8.9375 4.6175 8.9375 3.9375 8.9375 C3.6075 8.2775 3.2775 7.6175 2.9375 6.9375 C2.545625 7.4325 2.15375 7.9275 1.75 8.4375 C-0.0625 9.9375 -0.0625 9.9375 -2.625 10.25 C-5.0625 9.9375 -5.0625 9.9375 -7.0625 7.9375 C-7.5 5.5 -7.5 5.5 -7.0625 2.9375 C-4.67749223 0.94999352 -3.14954521 -0.09544076 0 0 Z " fill="#D0492C" transform="translate(434.0625,246.0625)"/>
<path d="M0 0 C1.32 0 2.64 0 4 0 C4 6.93 4 13.86 4 21 C2.68 21 1.36 21 0 21 C-0.88826175 13.81191259 -1.01202288 7.17757765 0 0 Z " fill="#0C286C" transform="translate(284,207)"/>
<path d="M0 0 C6.75 -0.125 6.75 -0.125 9 1 C9.09765625 7.15234375 9.09765625 7.15234375 9 9 C8 10 8 10 6.15234375 10.09765625 C4.1015625 10.06510417 2.05078125 10.03255208 0 10 C0 6.7 0 3.4 0 0 Z " fill="#585343" transform="translate(369,261)"/>
<path d="M0 0 C0.66 0.33 1.32 0.66 2 1 C2.36101683 4.24915145 2.24958242 5.6352257 0.375 8.375 C-2 10 -2 10 -5.25 9.75 C-6.61125 9.37875 -6.61125 9.37875 -8 9 C-9.3260274 3.57534247 -9.3260274 3.57534247 -7.9375 1.125 C-5.20364043 -0.46240233 -3.10560173 -0.26430653 0 0 Z " fill="#263764" transform="translate(389,219)"/>
<path d="M0 0 C2.31 0 4.62 0 7 0 C7.33 1.65 7.66 3.3 8 5 C8.99 5.33 9.98 5.66 11 6 C11.33 6.66 11.66 7.32 12 8 C10.68 8 9.36 8 8 8 C8 9.32 8 10.64 8 12 C5.69 12 3.38 12 1 12 C1 10.68 1 9.36 1 8 C2.98 8 4.96 8 7 8 C6.67 7.34 6.34 6.68 6 6 C2.97065509 5.34227572 2.97065509 5.34227572 0 5 C0 3.35 0 1.7 0 0 Z " fill="#E16A21" transform="translate(343,239)"/>
<path d="M0 0 C0.66 0 1.32 0 2 0 C2.37125 1.175625 2.7425 2.35125 3.125 3.5625 C4.62098573 7.64574608 6.74360281 10.30258968 9.79296875 13.359375 C11 15 11 15 11 19 C11.66 19.33 12.32 19.66 13 20 C9.02309105 19.47390666 7.439122 17.66597631 4.875 14.6875 C4.19179688 13.90761719 3.50859375 13.12773437 2.8046875 12.32421875 C-0.16475068 8.4999423 -1.39638872 5.88879424 -1 1 C-0.67 0.67 -0.34 0.34 0 0 Z " fill="#E5EFF9" transform="translate(29,190)"/>
<path d="M0 0 C5.36501345 0.31851657 7.81809774 3.31453079 11.3125 7 C12.13717773 7.83917969 12.13717773 7.83917969 12.97851562 8.6953125 C17 12.83169643 17 12.83169643 17 14 C14.89453125 14.33203125 14.89453125 14.33203125 12 14 C9.68713821 12.29074581 7.73871635 10.6639454 5.6875 8.6875 C4.86282227 7.93823242 4.86282227 7.93823242 4.02148438 7.17382812 C2.61230067 5.85217136 1.298255 4.43077226 0 3 C0 2.01 0 1.02 0 0 Z " fill="#DBE5F3" transform="translate(106,150)"/>
<path d="M0 0 C2.5625 0.1875 2.5625 0.1875 4.5625 2.1875 C4.75 5.75 4.75 5.75 4.5625 9.1875 C3.5625 10.1875 3.5625 10.1875 0.5625 10.3125 C-2.4375 10.1875 -2.4375 10.1875 -3.4375 9.1875 C-3.5703125 7.375 -3.5703125 7.375 -3.5625 5.1875 C-3.56507813 4.465625 -3.56765625 3.74375 -3.5703125 3 C-3.36228014 0.16097012 -2.84416607 0.21878201 0 0 Z " fill="#2E395C" transform="translate(393.4375,260.8125)"/>
<path d="M0 0 C1.32 0 2.64 0 4 0 C4 5.28 4 10.56 4 16 C5.32 16.33 6.64 16.66 8 17 C6.25 17.625 6.25 17.625 4 18 C2.68 17.34 1.36 16.68 0 16 C0 10.72 0 5.44 0 0 Z " fill="#D12A2D" transform="translate(311,236)"/>
<path d="M0 0 C1.98 0 3.96 0 6 0 C6.33 0.99 6.66 1.98 7 3 C5.35 3 3.7 3 2 3 C2 3.33 2 3.66 2 4 C3.65 4 5.3 4 7 4 C7 6.31 7 8.62 7 11 C4.125 11.125 4.125 11.125 1 11 C-1 9 -1 9 -1.1875 5.5 C-1 2 -1 2 0 0 Z " fill="#978132" transform="translate(381,261)"/>
<path d="M0 0 C1.98 0 3.96 0 6 0 C6.33 4.95 6.66 9.9 7 15 C8.65 15.33 10.3 15.66 12 16 C12.33 17.65 12.66 19.3 13 21 C11.72125 21.061875 10.4425 21.12375 9.125 21.1875 C8.04605469 21.23970703 8.04605469 21.23970703 6.9453125 21.29296875 C6.30335938 21.19628906 5.66140625 21.09960938 5 21 C4.34 20.01 3.68 19.02 3 18 C4.65 18 6.3 18 8 18 C7.01 17.67 6.02 17.34 5 17 C5 11.72 5 6.44 5 1 C3.68 1 2.36 1 1 1 C1 5.62 1 10.24 1 15 C0.67 15 0.34 15 0 15 C0 10.05 0 5.1 0 0 Z " fill="#D0592A" transform="translate(310,235)"/>
<path d="M0 0 C0 3 0 3 -1 5 C-0.34 5.33 0.32 5.66 1 6 C-0.56367357 9.52238047 -2.69495889 12.27123994 -5.125 15.25 C-5.84945312 16.14203125 -6.57390625 17.0340625 -7.3203125 17.953125 C-8.15175781 18.96632812 -8.15175781 18.96632812 -9 20 C-9.99 19.67 -10.98 19.34 -12 19 C-11.67 17.68 -11.34 16.36 -11 15 C-10.34 15 -9.68 15 -9 15 C-9 14.34 -9 13.68 -9 13 C-8.360625 12.71125 -7.72125 12.4225 -7.0625 12.125 C-4.84793921 11.17176549 -4.84793921 11.17176549 -4 9 C-4.99 8.34 -5.98 7.68 -7 7 C-4.69 4.69 -2.38 2.38 0 0 Z " fill="#173178" transform="translate(46,157)"/>
<path d="M0 0 C1.32 0 2.64 0 4 0 C4 0.99 4 1.98 4 3 C3.34 3 2.68 3 2 3 C2 4.32 2 5.64 2 7 C2.99 7.33 3.98 7.66 5 8 C5 10.97 5 13.94 5 17 C3.35 17 1.7 17 0 17 C0 11.39 0 5.78 0 0 Z " fill="#C9472B" transform="translate(387,239)"/>
<path d="M0 0 C2.4375 1.5 2.4375 1.5 4 3 C3.67 4.32 3.34 5.64 3 7 C3 6.01 3 5.02 3 4 C2.01 4 1.02 4 0 4 C0 4.99 0 5.98 0 7 C-2.31 7 -4.62 7 -7 7 C-7 6.01 -7 5.02 -7 4 C-7.99 4 -8.98 4 -10 4 C-9.67 3.01 -9.34 2.02 -9 1 C-5.94306678 -0.52846661 -3.37015453 -0.23242445 0 0 Z " fill="#1C3364" transform="translate(302,212)"/>
<path d="M0 0 C1.32 0.66 2.64 1.32 4 2 C4 3.98 4 5.96 4 8 C2 5 2 5 2 3 C1.34 3 0.68 3 0 3 C-0.10183594 3.96035156 -0.20367187 4.92070312 -0.30859375 5.91015625 C-0.98024442 10.61171091 -2.50908701 14.96467976 -4.0625 19.4375 C-4.34416016 20.26443359 -4.62582031 21.09136719 -4.91601562 21.94335938 C-5.60517792 23.96412338 -6.3018231 25.98233282 -7 28 C-7.33 28 -7.66 28 -8 28 C-7.52838931 22.15202744 -6.5497338 16.95171893 -4.7578125 11.3671875 C-4.08200337 9.25615485 -3.49789372 7.14372834 -2.9375 5 C-2 2 -2 2 0 0 Z " fill="#152F76" transform="translate(83,147)"/>
<path d="M0 0 C1.32 0 2.64 0 4 0 C4 5.28 4 10.56 4 16 C2.68 16 1.36 16 0 16 C0 10.72 0 5.44 0 0 Z " fill="#CB302D" transform="translate(379,239)"/>
<path d="M0 0 C0.99 0 1.98 0 3 0 C3.144375 1.0725 3.28875 2.145 3.4375 3.25 C3.83749442 5.91662949 4.27591924 8.41399729 5 11 C4.34 11 3.68 11 3 11 C3 13.64 3 16.28 3 19 C2.01 19 1.02 19 0 19 C0 12.73 0 6.46 0 0 Z " fill="#DC232B" transform="translate(290,236)"/>
<path d="M0 0 C2.5 2.0625 2.5 2.0625 4 4 C3.01 4.495 3.01 4.495 2 5 C2 4.34 2 3.68 2 3 C-3.7974423 2.75571657 -3.7974423 2.75571657 -9 5 C-9 5.33 -9 5.66 -9 6 C-13.455 6.495 -13.455 6.495 -18 7 C-12.37026345 1.04856422 -8.26954475 -2.62415616 0 0 Z " fill="#173277" transform="translate(90,139)"/>
<path d="M0 0 C0.99 0 1.98 0 3 0 C3 0.99 3 1.98 3 3 C4.32 3 5.64 3 7 3 C7 4.32 7 5.64 7 7 C5.8553125 6.9690625 5.8553125 6.9690625 4.6875 6.9375 C1.89814214 6.87057159 1.89814214 6.87057159 -1 8 C-1 10.97 -1 13.94 -1 17 C-1.33 17 -1.66 17 -2 17 C-2 13.7 -2 10.4 -2 7 C-2.66 7 -3.32 7 -4 7 C-4 5.68 -4 4.36 -4 3 C-2.68 3 -1.36 3 0 3 C0 2.01 0 1.02 0 0 Z " fill="#D04326" transform="translate(418,236)"/>
<path d="M0 0 C0.99 0 1.98 0 3 0 C3 1.32 3 2.64 3 4 C3.99 4 4.98 4 6 4 C6 5.32 6 6.64 6 8 C5.01 8 4.02 8 3 8 C3 10.31 3 12.62 3 15 C2.67 15 2.34 15 2 15 C1.67 12.69 1.34 10.38 1 8 C0.01 8.33 -0.98 8.66 -2 9 C-2.66 8.67 -3.32 8.34 -4 8 C-4 6.68 -4 5.36 -4 4 C-3.01 4 -2.02 4 -1 4 C-0.67 2.68 -0.34 1.36 0 0 Z " fill="#32425E" transform="translate(244,208)"/>
<path d="M0 0 C0.66 0.33 1.32 0.66 2 1 C-0.11393565 4.17090348 -0.79971661 4.3998583 -4 6 C-5.37310707 7.29233607 -6.71034824 8.62437146 -8 10 C-8.66 10.66 -9.32 11.32 -10 12 C-10.67292501 13.96690374 -10.67292501 13.96690374 -11.125 16.125 C-11.41375 17.40375 -11.7025 18.6825 -12 20 C-13.32 19.01 -14.64 18.02 -16 17 C-15.73146353 13.46531064 -15.19282649 12.19187032 -12.63671875 9.6484375 C-11.66347656 8.89820313 -10.69023437 8.14796875 -9.6875 7.375 C-8.72199219 6.61960938 -7.75648437 5.86421875 -6.76171875 5.0859375 C-2.24254261 1.67258523 -2.24254261 1.67258523 0 0 Z " fill="#122873" transform="translate(24,177)"/>
<path d="M0 0 C0.33 0.99 0.66 1.98 1 3 C1.66 3.33 2.32 3.66 3 4 C-1.61534219 8.06478107 -6.25585812 12.08608295 -11 16 C-11 12.63277693 -10.58291387 10.60725533 -8.22265625 8.1484375 C-6.80632874 6.94468718 -5.36906699 5.76505289 -3.91015625 4.61328125 C-1.77205649 2.95898375 -1.77205649 2.95898375 0 0 Z " fill="#DFEAF7" transform="translate(115,221)"/>
<path d="M0 0 C0.33 0.66 0.66 1.32 1 2 C1.66 2 2.32 2 3 2 C3.28875 2.804375 3.5775 3.60875 3.875 4.4375 C4.73262568 7.1326468 4.73262568 7.1326468 7 8 C3.33954174 7.65683204 1.08694762 6.47744058 -1.875 4.4375 C-5.7167059 1.92951841 -8.35439704 1.37463037 -13 2 C-15.35369807 2.88064927 -15.35369807 2.88064927 -17 4 C-16.67 2.68 -16.34 1.36 -16 0 C-10.44311387 -1.03383928 -5.50663572 -1.52962103 0 0 Z " fill="#1A3479" transform="translate(94,133)"/>
<path d="M0 0 C1.32 0 2.64 0 4 0 C5.125 7.75 5.125 7.75 4 10 C1.36 9.34 -1.28 8.68 -4 8 C-3.07542408 4.30169631 -2.57034939 2.66554752 0 0 Z " fill="#26365E" transform="translate(437,261)"/>
<path d="M0 0 C2.375 -0.125 2.375 -0.125 5 0 C7 2 7 2 7.1953125 4.8203125 C7.16050781 6.45613281 7.16050781 6.45613281 7.125 8.125 C7.10695313 9.22070312 7.08890625 10.31640625 7.0703125 11.4453125 C7.04710937 12.28835937 7.02390625 13.13140625 7 14 C5.68 14 4.36 14 3 14 C2.92652344 12.73542969 2.92652344 12.73542969 2.8515625 11.4453125 C2.77679688 10.34960938 2.70203125 9.25390625 2.625 8.125 C2.55539062 7.03445312 2.48578125 5.94390625 2.4140625 4.8203125 C2.26746509 1.86953526 2.26746509 1.86953526 0 0 Z " fill="#CC2C31" transform="translate(405,241)"/>
<path d="M0 0 C0.99 0 1.98 0 3 0 C3 1.32 3 2.64 3 4 C4.32 4 5.64 4 7 4 C7 5.32 7 6.64 7 8 C5.68 8 4.36 8 3 8 C3 10.31 3 12.62 3 15 C2.67 15 2.34 15 2 15 C1.67 12.69 1.34 10.38 1 8 C0.01 8 -0.98 8 -2 8 C-2.66 8 -3.32 8 -4 8 C-4 6.68 -4 5.36 -4 4 C-2.68 4 -1.36 4 0 4 C0 2.68 0 1.36 0 0 Z " fill="#36435E" transform="translate(331,208)"/>
<path d="M0 0 C1.98 0 3.96 0 6 0 C6.33 1.65 6.66 3.3 7 5 C6.01 5.66 5.02 6.32 4 7 C4.99 7.33 5.98 7.66 7 8 C7 8.66 7 9.32 7 10 C4.36 10 1.72 10 -1 10 C-1 9.01 -1 8.02 -1 7 C0.65 6.34 2.3 5.68 4 5 C4 4.01 4 3.02 4 2 C3.34 2 2.68 2 2 2 C2 2.66 2 3.32 2 4 C1.01 4 0.02 4 -1 4 C-0.67 2.68 -0.34 1.36 0 0 Z " fill="#424951" transform="translate(401,261)"/>
<path d="M0 0 C0.99 0 1.98 0 3 0 C4.00109515 3.31070838 4.10356134 6.30084769 4.0625 9.75 C4.05347656 10.73484375 4.04445313 11.7196875 4.03515625 12.734375 C4.02355469 13.48203125 4.01195312 14.2296875 4 15 C2.68 15 1.36 15 0 15 C0 10.05 0 5.1 0 0 Z " fill="#0A2673" transform="translate(399,213)"/>
<path d="M0 0 C0.33 0 0.66 0 1 0 C1.05449838 1.72880982 1.09301688 3.45812712 1.125 5.1875 C1.14820313 6.15042969 1.17140625 7.11335937 1.1953125 8.10546875 C0.9913544 11.12812778 0.26874632 13.26769985 -1 16 C-1.33 14.68 -1.66 13.36 -2 12 C-2.99 12 -3.98 12 -5 12 C-5 9.36 -5 6.72 -5 4 C-4.0409375 3.8453125 -4.0409375 3.8453125 -3.0625 3.6875 C-2.381875 3.460625 -1.70125 3.23375 -1 3 C-0.67 2.01 -0.34 1.02 0 0 Z " fill="#EEB812" transform="translate(252,212)"/>
<path d="M0 0 C1.29608947 0.93137592 2.58671632 1.8703566 3.875 2.8125 C4.59429687 3.33457031 5.31359375 3.85664063 6.0546875 4.39453125 C8 6 8 6 10 9 C6.98968256 9.93423645 6.13349732 10.04449911 3 9 C2.67 9.66 2.34 10.32 2 11 C0.35 9.02 -1.3 7.04 -3 5 C-2.01 4.67 -1.02 4.34 0 4 C0 2.68 0 1.36 0 0 Z " fill="#102C71" transform="translate(130,163)"/>
<path d="M0 0 C0.33 0 0.66 0 1 0 C1 5.28 1 10.56 1 16 C0.01 15.01 -0.98 14.02 -2 13 C-2 12.34 -2 11.68 -2 11 C-2.721875 11.350625 -3.44375 11.70125 -4.1875 12.0625 C-7.3122705 13.10409017 -8.88161996 12.89096572 -12 12 C-12 11.01 -12 10.02 -12 9 C-8.7 9 -5.4 9 -2 9 C-1.25044562 6.0017825 -0.58929011 3.03063487 0 0 Z " fill="#E6B523" transform="translate(308,212)"/>
<path d="M0 0 C0.99 0 1.98 0 3 0 C3.98262143 7.20983676 4.6644984 12.55048282 1 19 C0.67 19 0.34 19 0 19 C0 12.73 0 6.46 0 0 Z " fill="#062871" transform="translate(436,207)"/>
<path d="M0 0 C1.32 0 2.64 0 4 0 C4.07347656 1.03060547 4.07347656 1.03060547 4.1484375 2.08203125 C4.22320312 2.98308594 4.29796875 3.88414062 4.375 4.8125 C4.44460937 5.70582031 4.51421875 6.59914062 4.5859375 7.51953125 C4.86645036 10.24398499 4.86645036 10.24398499 7 13 C5.68 13.33 4.36 13.66 3 14 C3 13.34 3 12.68 3 12 C2.34 12 1.68 12 1 12 C-0.3271261 8.0186217 -0.06915913 4.14954773 0 0 Z " fill="#D63129" transform="translate(249,239)"/>
<path d="M0 0 C1.32 0 2.64 0 4 0 C5.125 7.75 5.125 7.75 4 10 C3.34 10 2.68 10 2 10 C2 9.34 2 8.68 2 8 C0.35 8 -1.3 8 -3 8 C-2.45276317 4.62537285 -1.9451 2.91765 0 0 Z " fill="#142A6C" transform="translate(422,261)"/>
<path d="M0 0 C0.66 0.99 1.32 1.98 2 3 C6.455 2.505 6.455 2.505 11 2 C10 6 10 6 7 8 C1.69124424 8.55299539 1.69124424 8.55299539 -0.875 6.5 C-1.24625 6.005 -1.6175 5.51 -2 5 C-1.34 4.67 -0.68 4.34 0 4 C0 2.68 0 1.36 0 0 Z " fill="#273B5F" transform="translate(295,221)"/>
<path d="M0 0 C1.65 0 3.3 0 5 0 C5.33 0.66 5.66 1.32 6 2 C6.33 1.34 6.66 0.68 7 0 C9.31 0 11.62 0 14 0 C14 0.33 14 0.66 14 1 C12.02 1 10.04 1 8 1 C8 1.66 8 2.32 8 3 C8.66 3.33 9.32 3.66 10 4 C9.01 4.33 8.02 4.66 7 5 C6.67 8.63 6.34 12.26 6 16 C5.67 16 5.34 16 5 16 C4.67 11.05 4.34 6.1 4 1 C3.01 1 2.02 1 1 1 C1 5.95 1 10.9 1 16 C0.67 16 0.34 16 0 16 C0 10.72 0 5.44 0 0 Z " fill="#686549" transform="translate(398,212)"/>
<path d="M0 0 C1.98 0 3.96 0 6 0 C6.33 0.99 6.66 1.98 7 3 C5.35 2.67 3.7 2.34 2 2 C2 2.66 2 3.32 2 4 C3.65 4.33 5.3 4.66 7 5 C7.5625 6.9375 7.5625 6.9375 8 9 C7 10 7 10 3.4375 10.0625 C2.303125 10.041875 1.16875 10.02125 0 10 C-0.33 9.01 -0.66 8.02 -1 7 C-0.34 7 0.32 7 1 7 C1 7.66 1 8.32 1 9 C2.32 8.34 3.64 7.68 5 7 C3.02 6.01 1.04 5.02 -1 4 C-0.67 2.68 -0.34 1.36 0 0 Z " fill="#373F54" transform="translate(351,261)"/>
<path d="M0 0 C1.98 0 3.96 0 6 0 C6 0.66 6 1.32 6 2 C6.66 2.33 7.32 2.66 8 3 C6.35 3 4.7 3 3 3 C3.020625 4.258125 3.04125 5.51625 3.0625 6.8125 C3.10886083 9.64051087 2.91692961 11.24921116 2 14 C1.34 14 0.68 14 0 14 C0 9.38 0 4.76 0 0 Z " fill="#D8282C" transform="translate(340,236)"/>
<path d="M0 0 C0.99 0 1.98 0 3 0 C3.33 1.98 3.66 3.96 4 6 C6.31 6.33 8.62 6.66 11 7 C11 7.66 11 8.32 11 9 C7.32589215 10.17571451 3.83070817 10.07366746 0 10 C0 6.7 0 3.4 0 0 Z " fill="#062571" transform="translate(348,218)"/>
<path d="M0 0 C0.66 0 1.32 0 2 0 C2 0.99 2 1.98 2 3 C2.66 3 3.32 3 4 3 C4 6.63 4 10.26 4 14 C2.68 14 1.36 14 0 14 C0 9.38 0 4.76 0 0 Z " fill="#082773" transform="translate(310,214)"/>
<path d="M0 0 C1.66611905 -0.042721 3.33382885 -0.04063832 5 0 C6 1 6 1 6.125 4 C6 7 6 7 5 8 C3.33382885 8.04063832 1.66611905 8.042721 0 8 C-1.125 2.25 -1.125 2.25 0 0 Z " fill="#EEB814" transform="translate(277,216)"/>
<path d="M0 0 C1.32 0 2.64 0 4 0 C4 4.95 4 9.9 4 15 C3.34 15 2.68 15 2 15 C2 13.35 2 11.7 2 10 C1.34 10 0.68 10 0 10 C0 6.7 0 3.4 0 0 Z " fill="#072769" transform="translate(264,213)"/>
<path d="M0 0 C1.65 0 3.3 0 5 0 C5.09579384 8.07861415 5.12513633 15.98340366 4 24 C2.68 23.67 1.36 23.34 0 23 C0.99 23 1.98 23 3 23 C3 16.07 3 9.14 3 2 C2.01 2 1.02 2 0 2 C0 1.34 0 0.68 0 0 Z " fill="#0E266C" transform="translate(76,175)"/>
<path d="M0 0 C1.65 0 3.3 0 5 0 C5.625 2.375 5.625 2.375 6 5 C5.34 5.66 4.68 6.32 4 7 C4.66 7.33 5.32 7.66 6 8 C6 8.66 6 9.32 6 10 C3.36 10 0.72 10 -2 10 C-0.55746343 6.63408134 1.33264727 4.48952921 4 2 C2.35 2.33 0.7 2.66 -1 3 C-0.67 2.01 -0.34 1.02 0 0 Z " fill="#2C3A59" transform="translate(411,261)"/>
<path d="M0 0 C1.65 0.33 3.3 0.66 5 1 C5.80967438 3.91482778 6.21845993 5.46113217 5.0625 8.3125 C4.5365625 9.1478125 4.5365625 9.1478125 4 10 C1.4375 7.8125 1.4375 7.8125 -1 5 C-0.8125 2.1875 -0.8125 2.1875 0 0 Z " fill="#0A2674" transform="translate(64,237)"/>
<path d="M0 0 C3 2 3 2 3.93359375 3.859375 C4 6 4 6 2.34765625 8.140625 C1.21650391 9.18476563 1.21650391 9.18476563 0.0625 10.25 C-0.68902344 10.95640625 -1.44054688 11.6628125 -2.21484375 12.390625 C-2.80394531 12.92171875 -3.39304688 13.4528125 -4 14 C-4.33 13.01 -4.66 12.02 -5 11 C-4.34 11 -3.68 11 -3 11 C-2.22227595 8.66682784 -1.57584432 6.38564077 -1 4 C-1.66 3.67 -2.32 3.34 -3 3 C-2.01 2.01 -1.02 1.02 0 0 Z " fill="#1A3473" transform="translate(58,144)"/>
<path d="M0 0 C1.32 0 2.64 0 4 0 C4.33 3.63 4.66 7.26 5 11 C3.35 11 1.7 11 0 11 C0 7.37 0 3.74 0 0 Z " fill="#082763" transform="translate(320,217)"/>
<path d="M0 0 C0.33 0.66 0.66 1.32 1 2 C2.32 2 3.64 2 5 2 C5 1.34 5 0.68 5 0 C5.99 0.33 6.98 0.66 8 1 C6.71034824 2.37562854 5.37310707 3.70766393 4 5 C3.34 5 2.68 5 2 5 C1.67 5.99 1.34 6.98 1 8 C0.01 7.34 -0.98 6.68 -2 6 C-3.32 6.33 -4.64 6.66 -6 7 C-4.02 4.69 -2.04 2.38 0 0 Z " fill="#143071" transform="translate(127,214)"/>
<path d="M0 0 C0.33 1.32 0.66 2.64 1 4 C0.38125 4.185625 -0.2375 4.37125 -0.875 4.5625 C-4.05602866 6.71437233 -4.19451947 9.37533763 -5 13 C-5.66 13 -6.32 13 -7 13 C-6.34 15.31 -5.68 17.62 -5 20 C-5.66 20.33 -6.32 20.66 -7 21 C-8.62065986 18.52134375 -9.01423202 17.21110826 -8.8125 14.21875 C-7.85615803 10.43016451 -6.30986074 8.21283462 -3.9375 5.125 C-3.20402344 4.15820312 -2.47054687 3.19140625 -1.71484375 2.1953125 C-1.14894531 1.47085938 -0.58304688 0.74640625 0 0 Z " fill="#253D7D" transform="translate(40,177)"/>
<path d="M0 0 C0.66 0.99 1.32 1.98 2 3 C1.33333333 4.33333333 0.66666667 5.66666667 0 7 C-0.4640625 8.0828125 -0.4640625 8.0828125 -0.9375 9.1875 C-2 11 -2 11 -5 12 C-6.20882096 14.00016466 -6.20882096 14.00016466 -7 16 C-7.41276847 10.97306969 -6.52437156 8.62149099 -3.5 4.625 C-2.8503125 3.75101563 -2.200625 2.87703125 -1.53125 1.9765625 C-1.0259375 1.32429687 -0.520625 0.67203125 0 0 Z " fill="#D8DFF1" transform="translate(34,179)"/>
<path d="M0 0 C-0.33 0.99 -0.66 1.98 -1 3 C-5.0527516 3.98248524 -8.83861737 4.08159574 -13 4 C-12.67 3.01 -12.34 2.02 -12 1 C-10.29296875 0.234375 -10.29296875 0.234375 -8.1875 -0.25 C-7.50042969 -0.42015625 -6.81335938 -0.5903125 -6.10546875 -0.765625 C-3.80500179 -1.02170666 -2.19370273 -0.69015367 0 0 Z " fill="#DDE8F5" transform="translate(102,199)"/>
<path d="M0 0 C0.309375 0.804375 0.61875 1.60875 0.9375 2.4375 C1.76335345 4.89080405 1.76335345 4.89080405 3 6 C3.14115161 8.67058851 3.04247107 11.32432238 3 14 C1.02 14.66 -0.96 15.32 -3 16 C-2.505 15.46375 -2.01 14.9275 -1.5 14.375 C0.44405832 11.29690766 0.608676 9.57597151 0 6 C-2.42672567 4.21030974 -2.42672567 4.21030974 -5 3 C-5 2.34 -5 1.68 -5 1 C-3 0 -3 0 0 0 Z " fill="#28407F" transform="translate(114,182)"/>
<path d="M0 0 C1.9375 0.625 1.9375 0.625 4 2 C4.75 5.125 4.75 5.125 5 8 C1.94736336 8.98120464 0.05263664 8.98120464 -3 8 C-1.125 1.125 -1.125 1.125 0 0 Z " fill="#05247B" transform="translate(27,198)"/>
<path d="M0 0 C2.93200474 2.85276137 5.64315404 5.65079784 8 9 C7.01 9.99 6.02 10.98 5 12 C3.68 11.34 2.36 10.68 1 10 C1.33 9.34 1.66 8.68 2 8 C1.34 7.67 0.68 7.34 0 7 C0.33 6.01 0.66 5.02 1 4 C0.61067144 1.85744207 0.61067144 1.85744207 0 0 Z " fill="#1A3476" transform="translate(38,209)"/>
<path d="M0 0 C1 2 1 2 0.3125 4.75 C-1.07926349 8.1962715 -2.84459722 10.9824361 -5 14 C-5.66 13.34 -6.32 12.68 -7 12 C-5.94124926 8.59687262 -4.99097846 5.98646769 -3 3 C-2.34 3 -1.68 3 -1 3 C-0.67 2.01 -0.34 1.02 0 0 Z " fill="#04267F" transform="translate(47,169)"/>
<path d="M0 0 C0.99 0.33 1.98 0.66 3 1 C3 1.66 3 2.32 3 3 C-8.88 3 -20.76 3 -33 3 C-33 2.67 -33 2.34 -33 2 C-31.55379272 1.96241577 -31.55379272 1.96241577 -30.07836914 1.92407227 C-26.51312158 1.83014694 -22.94807567 1.72989061 -19.38305664 1.62768555 C-17.83785711 1.58428015 -16.29260786 1.54260929 -14.74731445 1.50268555 C-12.53060904 1.44511801 -10.3141552 1.38138576 -8.09765625 1.31640625 C-7.4028566 1.29969376 -6.70805695 1.28298126 -5.99220276 1.26576233 C-2.71237971 1.43497144 -2.71237971 1.43497144 0 0 Z " fill="#092A74" transform="translate(447,168)"/>
<path d="M0 0 C5.09210286 3.56320845 9.22660027 7.04741286 13 12 C10 12 10 12 8.3125 10.5 C7.879375 10.005 7.44625 9.51 7 9 C7 9.66 7 10.32 7 11 C6.01 10.67 5.02 10.34 4 10 C4 9.01 4 8.02 4 7 C3.01 7 2.02 7 1 7 C0.67 4.69 0.34 2.38 0 0 Z " fill="#0A2772" transform="translate(98,146)"/>
<path d="M0 0 C0.042721 1.66611905 0.04063832 3.33382885 0 5 C-1 6 -1 6 -3.50390625 6.09765625 C-5.01791016 6.08025391 -5.01791016 6.08025391 -6.5625 6.0625 C-7.57441406 6.05347656 -8.58632813 6.04445312 -9.62890625 6.03515625 C-10.41136719 6.02355469 -11.19382812 6.01195312 -12 6 C-11.67 5.01 -11.34 4.02 -11 3 C-8.36 3 -5.72 3 -3 3 C-3 2.34 -3 1.68 -3 1 C-1 0 -1 0 0 0 Z " fill="#CF2C2B" transform="translate(355,249)"/>
<path d="M0 0 C0.33 0.99 0.66 1.98 1 3 C-1.60213075 7.39231845 -5.00076875 10.67667408 -10 12 C-10 9.875 -10 9.875 -9 7 C-6.50035946 4.74816865 -3.77691336 2.89117375 -1 1 C-0.67 0.67 -0.34 0.34 0 0 Z " fill="#EAF1FA" transform="translate(126,212)"/>
<path d="M0 0 C0.99 0 1.98 0 3 0 C3 4.29 3 8.58 3 13 C2.01 13 1.02 13 0 13 C-1.06671952 9.79984144 -0.94845472 8.11455706 -0.5625 4.8125 C-0.46066406 3.91144531 -0.35882813 3.01039063 -0.25390625 2.08203125 C-0.17011719 1.39496094 -0.08632813 0.70789063 0 0 Z " fill="#042676" transform="translate(284,207)"/>
<path d="M0 0 C0.33 0 0.66 0 1 0 C1 4.62 1 9.24 1 14 C-0.98 14 -2.96 14 -5 14 C-5.33 14.99 -5.66 15.98 -6 17 C-6 15.68 -6 14.36 -6 13 C-4.02 13 -2.04 13 0 13 C-1.32 9.04 -2.64 5.08 -4 1 C-2.68 1.33 -1.36 1.66 0 2 C0 1.34 0 0.68 0 0 Z " fill="#2D4487" transform="translate(93,161)"/>
<path d="M0 0 C0.33 0.66 0.66 1.32 1 2 C2.65 1.67 4.3 1.34 6 1 C4.50902342 4.7952131 2.24299151 6.61042731 -1 9 C-1 8.34 -1 7.68 -1 7 C-2.32 6.67 -3.64 6.34 -5 6 C-4.01 5.34 -3.02 4.68 -2 4 C-0.80767387 1.94996045 -0.80767387 1.94996045 0 0 Z " fill="#D7A919" transform="translate(409,262)"/>
<path d="M0 0 C0.66 0 1.32 0 2 0 C2.33 3.96 2.66 7.92 3 12 C2.01 11.67 1.02 11.34 0 11 C-0.33 9.02 -0.66 7.04 -1 5 C-2.65 5 -4.3 5 -6 5 C-3 3 -3 3 -1 3 C-0.67 2.01 -0.34 1.02 0 0 Z " fill="#D42829" transform="translate(439,243)"/>
<path d="M0 0 C2 3 2 3 2 6 C0.02 5.34 -1.96 4.68 -4 4 C-4.99 4.99 -5.98 5.98 -7 7 C-7.66 6.67 -8.32 6.34 -9 6 C-9 4.68 -9 3.36 -9 2 C-3.375 0 -3.375 0 0 0 Z " fill="#D73127" transform="translate(398,240)"/>
<path d="M0 0 C1.32 0 2.64 0 4 0 C3.125 4.875 3.125 4.875 2 6 C-0.33297433 6.04092937 -2.66705225 6.04241723 -5 6 C-5.33 5.01 -5.66 4.02 -6 3 C-5.195625 2.87625 -4.39125 2.7525 -3.5625 2.625 C-2.716875 2.41875 -1.87125 2.2125 -1 2 C-0.67 1.34 -0.34 0.68 0 0 Z " fill="#193267" transform="translate(428,222)"/>
<path d="M0 0 C1.9375 0.3125 1.9375 0.3125 4 1 C5.00496852 4.01490557 5.10335303 6.04181692 5.0625 9.1875 C5.05347656 10.08855469 5.04445313 10.98960937 5.03515625 11.91796875 C5.02355469 12.60503906 5.01195312 13.29210937 5 14 C4.01 14 3.02 14 2 14 C1.93941406 13.15695313 1.87882812 12.31390625 1.81640625 11.4453125 C1.73261719 10.34960938 1.64882813 9.25390625 1.5625 8.125 C1.48128906 7.03445312 1.40007812 5.94390625 1.31640625 4.8203125 C1.16998297 2.05271029 1.16998297 2.05271029 0 0 Z " fill="#04276F" transform="translate(445,214)"/>
<path d="M0 0 C0.66 0 1.32 0 2 0 C2 1.98 2 3.96 2 6 C1.01 6 0.02 6 -1 6 C-0.67 7.32 -0.34 8.64 0 10 C-2.475 9.01 -2.475 9.01 -5 8 C-3.63055898 5.05043472 -2.12169591 2.47531189 0 0 Z " fill="#05267D" transform="translate(106,235)"/>
<path d="M0 0 C0.99 0.33 1.98 0.66 3 1 C3.375 3.1875 3.375 3.1875 3 6 C0.1875 8.8125 0.1875 8.8125 -3 11 C-3.99 11 -4.98 11 -6 11 C-5 8 -5 8 -2.4375 5.5 C0.34905007 3.2239365 0.34905007 3.2239365 0 0 Z " fill="#F0F8FC" transform="translate(112,188)"/>
<path d="M0 0 C0.70125 0.12375 1.4025 0.2475 2.125 0.375 C0.8125 2.875 0.8125 2.875 -0.875 5.375 C-1.865 5.375 -2.855 5.375 -3.875 5.375 C-3.875 6.035 -3.875 6.695 -3.875 7.375 C-4.865 7.705 -5.855 8.035 -6.875 8.375 C-7.535 7.715 -8.195 7.055 -8.875 6.375 C-3.7809081 0.49316193 -3.7809081 0.49316193 0 0 Z " fill="#062773" transform="translate(40.875,164.625)"/>
<path d="M0 0 C4.62 0 9.24 0 14 0 C14 0.99 14 1.98 14 3 C11.03 3 8.06 3 5 3 C5 2.34 5 1.68 5 1 C3.68 1 2.36 1 1 1 C1 2.65 1 4.3 1 6 C0.67 6 0.34 6 0 6 C0 4.02 0 2.04 0 0 Z " fill="#C93027" transform="translate(271,236)"/>
<path d="M0 0 C0.33 0.99 0.66 1.98 1 3 C0.34 3.66 -0.32 4.32 -1 5 C-1.33 4.01 -1.66 3.02 -2 2 C-2.99 3.485 -2.99 3.485 -4 5 C-7.625 5.1875 -7.625 5.1875 -11 5 C-11.33 4.34 -11.66 3.68 -12 3 C-10.68 3 -9.36 3 -8 3 C-7.67 2.01 -7.34 1.02 -7 0 C-4.05610218 -1.17755913 -3.10046087 -1.03348696 0 0 Z " fill="#27395E" transform="translate(266,223)"/>
<path d="M0 0 C3.875 1.875 3.875 1.875 5 3 C5.04063832 4.66617115 5.042721 6.33388095 5 8 C4.71125 7.360625 4.4225 6.72125 4.125 6.0625 C3.17176549 3.84793921 3.17176549 3.84793921 1 3 C1 4.65 1 6.3 1 8 C0.34 7.67 -0.32 7.34 -1 7 C-0.67 6.01 -0.34 5.02 0 4 C-1.11375 3.87625 -2.2275 3.7525 -3.375 3.625 C-7 3 -7 3 -9 1 C-7.700625 1.020625 -6.40125 1.04125 -5.0625 1.0625 C-3.70834367 1.08399454 -2.35243917 1.07148199 -1 1 C-0.67 0.67 -0.34 0.34 0 0 Z " fill="#313F5D" transform="translate(233,217)"/>
<path d="M0 0 C0.99 0.33 1.98 0.66 3 1 C1.02 3.97 -0.96 6.94 -3 10 C-3.33 9.01 -3.66 8.02 -4 7 C-4.66 7 -5.32 7 -6 7 C-6 6.01 -6 5.02 -6 4 C-4.02 3.34 -2.04 2.68 0 2 C0 1.34 0 0.68 0 0 Z " fill="#0E2F79" transform="translate(134,195)"/>
<path d="M0 0 C3.9252025 3.70090521 6.94580156 7.54959656 10 12 C7.36 12.33 4.72 12.66 2 13 C3.32 12.01 4.64 11.02 6 10 C4.7934375 8.9171875 4.7934375 8.9171875 3.5625 7.8125 C0.97707928 4.97484311 0.31957187 3.72833853 0 0 Z " fill="#09246F" transform="translate(97,129)"/>
<path d="M0 0 C0 3.29223784 -0.50518132 5.08510357 -2 8 C-4.95022696 10.13637125 -7.42532128 10.19859326 -11 10 C-7.50640535 6.40365256 -3.88901869 3.16548033 0 0 Z " fill="#203D7F" transform="translate(103,237)"/>
<path d="M0 0 C0.33 0 0.66 0 1 0 C1 4.29 1 8.58 1 13 C-0.65 13 -2.3 13 -4 13 C-4 9.37 -4 5.74 -4 2 C-1.70986347 5.4352048 -1.82157027 6.985331 -2 11 C-1.34 11 -0.68 11 0 11 C0 7.37 0 3.74 0 0 Z " fill="#20355C" transform="translate(413,215)"/>
<path d="M0 0 C0.66 0 1.32 0 2 0 C2 2.31 2 4.62 2 7 C2.99 7 3.98 7 5 7 C5 6.34 5 5.68 5 5 C5.99 5 6.98 5 8 5 C7.67 6.32 7.34 7.64 7 9 C4.69 9 2.38 9 0 9 C0 6.03 0 3.06 0 0 Z " fill="#27385C" transform="translate(370,262)"/>
<path d="M0 0 C0.99 0 1.98 0 3 0 C3 0.66 3 1.32 3 2 C3.99 2.33 4.98 2.66 6 3 C5.67 3.33 5.34 3.66 5 4 C5.99 4.66 6.98 5.32 8 6 C8 6.66 8 7.32 8 8 C2.25 7.125 2.25 7.125 0 6 C0 4.02 0 2.04 0 0 Z " fill="#EEB814" transform="translate(441,261)"/>
<path d="M0 0 C2.24606427 1.77444972 2.95081002 2.58352485 3.29296875 5.48046875 C3.25816406 6.37378906 3.22335937 7.26710937 3.1875 8.1875 C3.16042969 9.08855469 3.13335937 9.98960937 3.10546875 10.91796875 C3.07066406 11.60503906 3.03585937 12.29210937 3 13 C2.01 12.67 1.02 12.34 0 12 C-0.19477739 10.37585622 -0.38059458 8.75063577 -0.5625 7.125 C-0.66691406 6.22007812 -0.77132813 5.31515625 -0.87890625 4.3828125 C-1 2 -1 2 0 0 Z " fill="#D82528" transform="translate(371,241)"/>
<path d="M0 0 C5.875 3.75 5.875 3.75 7 6 C6.01 6.33 5.02 6.66 4 7 C3.01 8.485 3.01 8.485 2 10 C0.68 8.35 -0.64 6.7 -2 5 C-1.01 5 -0.02 5 1 5 C0.67 3.35 0.34 1.7 0 0 Z " fill="#1F346E" transform="translate(60,231)"/>
<path d="M0 0 C0.86625 0.5259375 0.86625 0.5259375 1.75 1.0625 C4.35801776 2.14917407 5.39417629 1.93065133 8 1 C7.67 2.65 7.34 4.3 7 6 C4.625 6.125 4.625 6.125 2 6 C1.34 5.34 0.68 4.68 0 4 C0 2.68 0 1.36 0 0 Z " fill="#2B3761" transform="translate(330,223)"/>
<path d="M0 0 C1.23556641 0.01740234 1.23556641 0.01740234 2.49609375 0.03515625 C3.32238281 0.04417969 4.14867187 0.05320313 5 0.0625 C5.63808594 0.07410156 6.27617187 0.08570313 6.93359375 0.09765625 C5.61359375 0.42765625 4.29359375 0.75765625 2.93359375 1.09765625 C2.93359375 1.75765625 2.93359375 2.41765625 2.93359375 3.09765625 C3.59359375 3.42765625 4.25359375 3.75765625 4.93359375 4.09765625 C0.47859375 4.59265625 0.47859375 4.59265625 -4.06640625 5.09765625 C-2.82537325 0.13352426 -2.82537325 0.13352426 0 0 Z " fill="#2B3B61" transform="translate(385.06640625,211.90234375)"/>
<path d="M0 0 C0.99 0.33 1.98 0.66 3 1 C2.67 1.99 2.34 2.98 2 4 C3.65 4 5.3 4 7 4 C7 4.66 7 5.32 7 6 C7.66 6 8.32 6 9 6 C9.66 4.68 10.32 3.36 11 2 C10.67 3.65 10.34 5.3 10 7 C8.68 7 7.36 7 6 7 C6 6.34 6 5.68 6 5 C4.02 5.33 2.04 5.66 0 6 C0 5.34 0 4.68 0 4 C-1.32 3.67 -2.64 3.34 -4 3 C-2.1875 1.4375 -2.1875 1.4375 0 0 Z " fill="#C7A022" transform="translate(417,265)"/>
<path d="M0 0 C0.5625 1.9375 0.5625 1.9375 1 4 C0 5 0 5 -2.5625 5.0625 C-3.7690625 5.0315625 -3.7690625 5.0315625 -5 5 C-5 4.01 -5 3.02 -5 2 C-5.99 1.67 -6.98 1.34 -8 1 C-4.93251126 -0.86240388 -3.40254489 -1.2151946 0 0 Z " fill="#E37F1B" transform="translate(436,247)"/>
<path d="M0 0 C0 3.63 0 7.26 0 11 C-0.99 11 -1.98 11 -3 11 C-3.93423645 7.98968256 -4.04449911 7.13349732 -3 4 C-3.66 3.67 -4.32 3.34 -5 3 C-2.25 0 -2.25 0 0 0 Z " fill="#072678" transform="translate(394,216)"/>
<path d="M0 0 C0.66 0 1.32 0 2 0 C2 1.65 2 3.3 2 5 C4.64 5.33 7.28 5.66 10 6 C9.67 6.66 9.34 7.32 9 8 C7.52031676 7.85950482 6.04125484 7.71245174 4.5625 7.5625 C3.73878906 7.48128906 2.91507813 7.40007812 2.06640625 7.31640625 C0 7 0 7 -1 6 C-1.125 3.5 -1.125 3.5 -1 1 C-0.67 0.67 -0.34 0.34 0 0 Z " fill="#062972" transform="translate(223,211)"/>
<path d="M0 0 C0.33 0 0.66 0 1 0 C1 4.62 1 9.24 1 14 C-0.65 14 -2.3 14 -4 14 C-4 10.04 -4 6.08 -4 2 C-3.67 2 -3.34 2 -3 2 C-2.95101563 2.63808594 -2.90203125 3.27617187 -2.8515625 3.93359375 C-2.77679688 4.75988281 -2.70203125 5.58617187 -2.625 6.4375 C-2.55539062 7.26121094 -2.48578125 8.08492187 -2.4140625 8.93359375 C-2.27742188 9.61550781 -2.14078125 10.29742187 -2 11 C-1.34 11.33 -0.68 11.66 0 12 C0 8.04 0 4.08 0 0 Z " fill="#D2582B" transform="translate(374,242)"/>
<path d="M0 0 C-0.33 1.32 -0.66 2.64 -1 4 C-2.65 4 -4.3 4 -6 4 C-6.33 3.01 -6.66 2.02 -7 1 C-9.01508358 0.26676204 -9.01508358 0.26676204 -11 0 C-7.18243176 -1.37432457 -3.92744671 -0.67975039 0 0 Z " fill="#DDAC17" transform="translate(233,221)"/>
<path d="M0 0 C0.86625 0.4640625 0.86625 0.4640625 1.75 0.9375 C3.92954724 2.07743133 3.92954724 2.07743133 6.1875 2.4375 C6.785625 2.623125 7.38375 2.80875 8 3 C8.33 3.99 8.66 4.98 9 6 C6.69 6 4.38 6 2 6 C2 5.01 2 4.02 2 3 C1.01 3 0.02 3 -1 3 C-0.67 2.01 -0.34 1.02 0 0 Z " fill="#746E44" transform="translate(293,213)"/>
<path d="M0 0 C1.98567708 0.26041667 3.97135417 0.52083333 5.95703125 0.78125 C8.15471706 1.053233 8.15471706 1.053233 11 1 C11.66 1.66 12.32 2.32 13 3 C12.34 4.32 11.68 5.64 11 7 C10.67 6.34 10.34 5.68 10 5 C6.39036593 3.60536866 2.80668696 2.67176829 -1 2 C-0.67 1.34 -0.34 0.68 0 0 Z " fill="#1A357A" transform="translate(65,178)"/>
<path d="M0 0 C2.64 0 5.28 0 8 0 C8 0.66 8 1.32 8 2 C7.01 2 6.02 2 5 2 C5 4.64 5 7.28 5 10 C4.34 10 3.68 10 3 10 C3 7.36 3 4.72 3 2 C2.01 2 1.02 2 0 2 C0 1.34 0 0.68 0 0 Z " fill="#2E3A53" transform="translate(360,261)"/>
<path d="M0 0 C0 0.99 0 1.98 0 3 C-1.98 3.99 -1.98 3.99 -4 5 C-4 6.32 -4 7.64 -4 9 C-5.65 9.66 -7.3 10.32 -9 11 C-9.33 10.34 -9.66 9.68 -10 9 C-6.83047153 5.73991357 -3.60062011 2.77762123 0 0 Z " fill="#E4EAF8" transform="translate(99,236)"/>
<path d="M0 0 C1.65 0 3.3 0 5 0 C4.67 1.65 4.34 3.3 4 5 C6.64 5.33 9.28 5.66 12 6 C12 6.33 12 6.66 12 7 C7.87853942 7.32325181 5.6324266 7.39022067 2.0625 5.1875 C0 3 0 3 0 0 Z " fill="#35425C" transform="translate(221,222)"/>
<path d="M0 0 C0.598125 0.226875 1.19625 0.45375 1.8125 0.6875 C1.1525 2.6675 0.4925 4.6475 -0.1875 6.6875 C2.7825 7.1825 2.7825 7.1825 5.8125 7.6875 C2.80218256 8.62173645 1.94599732 8.73199911 -1.1875 7.6875 C-1.1875 6.0375 -1.1875 4.3875 -1.1875 2.6875 C-3.69833114 3.94291557 -4.05875446 5.18813488 -5.1875 7.6875 C-5.41803497 4.84423536 -5.54653101 3.22604651 -3.9375 0.8125 C-2.1875 -0.3125 -2.1875 -0.3125 0 0 Z " fill="#2A3C5D" transform="translate(226.1875,208.3125)"/>
<path d="M0 0 C2.25 -0.3125 2.25 -0.3125 5 0 C7.77971464 2.77971464 9 4.01144966 9 8 C4.7257442 6.4169423 2.73468206 3.49431596 0 0 Z " fill="#E8F1FB" transform="translate(119,164)"/>
<path d="M0 0 C0 3.3 0 6.6 0 10 C-0.99 10 -1.98 10 -3 10 C-3.33 7.03 -3.66 4.06 -4 1 C-2 0 -2 0 0 0 Z " fill="#3A455B" transform="translate(432,261)"/>
<path d="M0 0 C0.66 0.66 1.32 1.32 2 2 C4.06874034 2.6425235 4.06874034 2.6425235 6 3 C6 4.32 6 5.64 6 7 C3.625 7.125 3.625 7.125 1 7 C0.34 6.34 -0.32 5.68 -1 5 C-0.625 2.375 -0.625 2.375 0 0 Z " fill="#1E3468" transform="translate(244,222)"/>
<path d="M0 0 C1.65 0 3.3 0 5 0 C5 1.65 5 3.3 5 5 C2.36 5.33 -0.28 5.66 -3 6 C-2.34 5.67 -1.68 5.34 -1 5 C-0.34444881 2.47266765 -0.34444881 2.47266765 0 0 Z " fill="#2D3A5E" transform="translate(374,212)"/>
<path d="M0 0 C2.31 0 4.62 0 7 0 C7.33 1.32 7.66 2.64 8 4 C5.125 4.625 5.125 4.625 2 5 C1.34 4.34 0.68 3.68 0 3 C0 2.01 0 1.02 0 0 Z " fill="#052676" transform="translate(133,172)"/>
<path d="M0 0 C0 3 0 3 -1 5 C-0.34 5.33 0.32 5.66 1 6 C0.67 6.99 0.34 7.98 0 9 C-2.31 8.67 -4.62 8.34 -7 8 C-6.02133662 6.85373678 -5.04205413 5.70800212 -4.0625 4.5625 C-3.51722656 3.92441406 -2.97195312 3.28632813 -2.41015625 2.62890625 C-1.63204305 1.73008851 -0.84063472 0.84063472 0 0 Z " fill="#1A2D69" transform="translate(46,157)"/>
<path d="M0 0 C0.66 0 1.32 0 2 0 C2.38218767 1.65614657 2.71395102 3.32457024 3 5 C2 6 2 6 -0.4375 6.25 C-1.283125 6.1675 -2.12875 6.085 -3 6 C-3.66 5.01 -4.32 4.02 -5 3 C-4.01 3 -3.02 3 -2 3 C-1.67 2.34 -1.34 1.68 -1 1 C-0.67 0.67 -0.34 0.34 0 0 Z " fill="#142D70" transform="translate(87,262)"/>
<path d="M0 0 C1.32 0 2.64 0 4 0 C3.67 2.97 3.34 5.94 3 9 C1.68 8.67 0.36 8.34 -1 8 C-0.67 5.36 -0.34 2.72 0 0 Z " fill="#E1252D" transform="translate(272,237)"/>
<path d="M0 0 C2.31 0 4.62 0 7 0 C7 1.32 7 2.64 7 4 C4.69 4 2.38 4 0 4 C0 2.68 0 1.36 0 0 Z " fill="#F1B911" transform="translate(352,220)"/>
<path d="M0 0 C0.66 0 1.32 0 2 0 C1.37801609 12.24664879 1.37801609 12.24664879 -2 16 C-4.10546875 16.6171875 -4.10546875 16.6171875 -6 17 C-5.566875 16.19175781 -5.13375 15.38351563 -4.6875 14.55078125 C-4.130625 13.48214844 -3.57375 12.41351563 -3 11.3125 C-2.443125 10.25675781 -1.88625 9.20101562 -1.3125 8.11328125 C-0.0327726 5.07773738 0.28851043 3.23973174 0 0 Z " fill="#1C3675" transform="translate(142,187)"/>
<path d="M0 0 C0.33 0.99 0.66 1.98 1 3 C-1.3125 5.5 -1.3125 5.5 -4 8 C-4.99 8 -5.98 8 -7 8 C-6.875 6.25 -6.875 6.25 -6 4 C-2.9375 1.75 -2.9375 1.75 0 0 Z " fill="#EDF3FD" transform="translate(65,148)"/>
<path d="M0 0 C2.475 0.495 2.475 0.495 5 1 C5 2.98 5 4.96 5 7 C3.68 6.34 2.36 5.68 1 5 C0.67 5.66 0.34 6.32 0 7 C0 4.69 0 2.38 0 0 Z " fill="#616C8F" transform="translate(122,247)"/>
<path d="M0 0 C3.25543229 0.34879632 4.01873107 1.02133261 6.25 3.5625 C6.8275 4.366875 7.405 5.17125 8 6 C7.01 6.33 6.02 6.66 5 7 C2.3125 5.25 2.3125 5.25 0 3 C0 2.01 0 1.02 0 0 Z " fill="#E9F0FA" transform="translate(59,227)"/>
<path d="M0 0 C1.98 0 3.96 0 6 0 C6.33 0.99 6.66 1.98 7 3 C7.66 3 8.32 3 9 3 C9 3.66 9 4.32 9 5 C4.545 4.01 4.545 4.01 0 3 C0 2.01 0 1.02 0 0 Z " fill="#EBB617" transform="translate(226,212)"/>
<path d="M0 0 C0.66 0 1.32 0 2 0 C2.66 2.64 3.32 5.28 4 8 C2.68 8 1.36 8 0 8 C-0.38063221 5.6739143 -0.71269945 3.33944736 -1 1 C-0.67 0.67 -0.34 0.34 0 0 Z " fill="#F0F6FC" transform="translate(29,190)"/>
<path d="M0 0 C1.98 0 3.96 0 6 0 C6.33 0.99 6.66 1.98 7 3 C5.35 3 3.7 3 2 3 C0.84188612 5.94729537 0.84188612 5.94729537 1 9 C0.34 9 -0.32 9 -1 9 C-1.125 2.25 -1.125 2.25 0 0 Z " fill="#2F3B56" transform="translate(381,261)"/>
<path d="M0 0 C1.32 0 2.64 0 4 0 C6.13586678 3.20380017 6.23132175 4.01939967 6.125 7.6875 C6.10695313 8.49574219 6.08890625 9.30398437 6.0703125 10.13671875 C6.03550781 11.05904297 6.03550781 11.05904297 6 12 C5.34 12 4.68 12 4 12 C3.81824219 10.95199219 3.81824219 10.95199219 3.6328125 9.8828125 C3.46523438 8.97273437 3.29765625 8.06265625 3.125 7.125 C2.96257812 6.22007812 2.80015625 5.31515625 2.6328125 4.3828125 C2.16955297 1.83494012 2.16955297 1.83494012 0 0 Z " fill="#DB222A" transform="translate(405,241)"/>
<path d="M0 0 C0.66 0.33 1.32 0.66 2 1 C1.25 3.4375 1.25 3.4375 0 6 C-2.125 6.8125 -2.125 6.8125 -4 7 C-4.33 5.68 -4.66 4.36 -5 3 C-2.625 1.4375 -2.625 1.4375 0 0 Z " fill="#082778" transform="translate(125,219)"/>
<path d="M0 0 C2.97 0 5.94 0 9 0 C9 0.66 9 1.32 9 2 C8.195625 2.12375 7.39125 2.2475 6.5625 2.375 C5.2940625 2.684375 5.2940625 2.684375 4 3 C3.67 3.66 3.34 4.32 3 5 C2.01 5 1.02 5 0 5 C0 3.35 0 1.7 0 0 Z " fill="#052671" transform="translate(348,209)"/>
<path d="M0 0 C2.31 0.66 4.62 1.32 7 2 C5.375 4.0625 5.375 4.0625 3 6 C-0.25 5.75 -0.25 5.75 -3 5 C-2.01 3.35 -1.02 1.7 0 0 Z " fill="#DBE5F3" transform="translate(65,196)"/>
<path d="M0 0 C0.66 0.33 1.32 0.66 2 1 C-0.11393565 4.17090348 -0.79971661 4.3998583 -4 6 C-4.66 6.721875 -5.32 7.44375 -6 8.1875 C-6.99 9.0846875 -6.99 9.0846875 -8 10 C-10.125 9.61328125 -10.125 9.61328125 -12 9 C-11.21753906 8.43410156 -10.43507813 7.86820313 -9.62890625 7.28515625 C-8.61699219 6.55167969 -7.60507812 5.81820312 -6.5625 5.0625 C-5.55316406 4.33160156 -4.54382813 3.60070312 -3.50390625 2.84765625 C-1.17707392 1.22678115 -1.17707392 1.22678115 0 0 Z " fill="#203162" transform="translate(24,177)"/>
<path d="M0 0 C-0.57344937 2.86724686 -0.8614515 3.8614515 -3 6 C-4.65 4.35 -6.3 2.7 -8 1 C-5.10765685 0.17361624 -3.11257569 0 0 0 Z " fill="#15327D" transform="translate(108,141)"/>
<path d="M0 0 C0.33 0.66 0.66 1.32 1 2 C1.99 2 2.98 2 4 2 C4 1.34 4 0.68 4 0 C4.66 0 5.32 0 6 0 C6 0.99 6 1.98 6 3 C4.7934375 3.4021875 4.7934375 3.4021875 3.5625 3.8125 C2.716875 4.204375 1.87125 4.59625 1 5 C0.67 5.99 0.34 6.98 0 8 C-0.38063221 5.6739143 -0.71269945 3.33944736 -1 1 C-0.67 0.67 -0.34 0.34 0 0 Z " fill="#E8B51A" transform="translate(399,263)"/>
<path d="M0 0 C2.31 0 4.62 0 7 0 C6.625 2.4375 6.625 2.4375 6 5 C5.01 5.495 5.01 5.495 4 6 C3.01 5.34 2.02 4.68 1 4 C1.33 3.67 1.66 3.34 2 3 C1.34 2.67 0.68 2.34 0 2 C0 1.34 0 0.68 0 0 Z " fill="#3E4350" transform="translate(444,261)"/>
<path d="M0 0 C1.98 0 3.96 0 6 0 C6.33 1.32 6.66 2.64 7 4 C4.69 4 2.38 4 0 4 C0 2.68 0 1.36 0 0 Z " fill="#FDBE0E" transform="translate(344,247)"/>
<path d="M0 0 C0.99 0.33 1.98 0.66 3 1 C2.67 4.96 2.34 8.92 2 13 C1.34 13 0.68 13 0 13 C0 8.71 0 4.42 0 0 Z " fill="#DD2626" transform="translate(361,240)"/>
<path d="M0 0 C1.98 0 3.96 0 6 0 C6.33 1.32 6.66 2.64 7 4 C4.69 4 2.38 4 0 4 C0 2.68 0 1.36 0 0 Z " fill="#EEB815" transform="translate(352,212)"/>
<path d="M0 0 C2.64752004 2.57784846 4.94432065 4.91648098 7 8 C5.02 8.33 3.04 8.66 1 9 C0 2.25 0 2.25 0 0 Z " fill="#183577" transform="translate(31,201)"/>
<path d="M0 0 C1.65 1.65 3.3 3.3 5 5 C3.35 6.32 1.7 7.64 0 9 C-0.99 7.68 -1.98 6.36 -3 5 C-2.01 4.67 -1.02 4.34 0 4 C0 2.68 0 1.36 0 0 Z " fill="#1F3572" transform="translate(130,163)"/>
<path d="M0 0 C0.99 0.66 1.98 1.32 3 2 C0.69 4.64 -1.62 7.28 -4 10 C-4.66 9.67 -5.32 9.34 -6 9 C-6 8.34 -6 7.68 -6 7 C-5.01 7 -4.02 7 -3 7 C-2.67 5.35 -2.34 3.7 -2 2 C-1.34 2 -0.68 2 0 2 C0 1.34 0 0.68 0 0 Z " fill="#132D6E" transform="translate(111,234)"/>
<path d="M0 0 C0.99 0 1.98 0 3 0 C3 2.97 3 5.94 3 9 C2.01 8.67 1.02 8.34 0 8 C0 5.36 0 2.72 0 0 Z " fill="#06257A" transform="translate(418,217)"/>
<path d="M0 0 C2.97 0 5.94 0 9 0 C9 3.96 9 7.92 9 12 C8.67 12 8.34 12 8 12 C7.34 8.7 6.68 5.4 6 2 C3.03 1.505 3.03 1.505 0 1 C0 0.67 0 0.34 0 0 Z " fill="#1C3167" transform="translate(275,159)"/>
<path d="M0 0 C3.625 -0.1875 3.625 -0.1875 7 0 C7.33 0.66 7.66 1.32 8 2 C1.71428571 4.42857143 1.71428571 4.42857143 -2 3 C-1.34 2.01 -0.68 1.02 0 0 Z " fill="#EBF6FC" transform="translate(81,134)"/>
<path d="M0 0 C3.375 0.25 3.375 0.25 7 1 C8.4375 3.0625 8.4375 3.0625 9 5 C6.69 5 4.38 5 2 5 C2 3.68 2 2.36 2 1 C1.34 0.67 0.68 0.34 0 0 Z " fill="#162A6B" transform="translate(81,115)"/>
<path d="M0 0 C1.32 0.66 2.64 1.32 4 2 C3.67 3.32 3.34 4.64 3 6 C0.69 6 -1.62 6 -4 6 C-4.33 5.01 -4.66 4.02 -5 3 C-4.34 3 -3.68 3 -3 3 C-3 3.66 -3 4.32 -3 5 C-1.68 4.34 -0.36 3.68 1 3 C0.34 2.34 -0.32 1.68 -1 1 C-0.67 0.67 -0.34 0.34 0 0 Z " fill="#263A56" transform="translate(355,265)"/>
<path d="M0 0 C1.32 0 2.64 0 4 0 C4.66 1.32 5.32 2.64 6 4 C5.01 4 4.02 4 3 4 C3 4.66 3 5.32 3 6 C2.01 6 1.02 6 0 6 C0 4.02 0 2.04 0 0 Z " fill="#9E8432" transform="translate(372,263)"/>
<path d="M0 0 C2.31 1.65 4.62 3.3 7 5 C6.01 5.33 5.02 5.66 4 6 C3.67 6.66 3.34 7.32 3 8 C0.9375 5.6875 0.9375 5.6875 -1 3 C-0.67 2.01 -0.34 1.02 0 0 Z " fill="#D4E0F2" transform="translate(66,231)"/>
<path d="M0 0 C0.33 0.99 0.66 1.98 1 3 C1.66 3.33 2.32 3.66 3 4 C1.71034824 5.37562854 0.37310707 6.70766393 -1 8 C-1.66 8 -2.32 8 -3 8 C-3 7.34 -3 6.68 -3 6 C-3.66 5.67 -4.32 5.34 -5 5 C-3.35 3.35 -1.7 1.7 0 0 Z " fill="#D2DDEC" transform="translate(115,221)"/>
<path d="M0 0 C3.24208567 0.35049575 4.61527704 0.56221181 6.8125 3.0625 C7.204375 3.701875 7.59625 4.34125 8 5 C6.25 5.75 6.25 5.75 4 6 C1.75 4.1875 1.75 4.1875 0 2 C0 1.34 0 0.68 0 0 Z " fill="#E5EFFC" transform="translate(46,216)"/>
<path d="M0 0 C0.33 0 0.66 0 1 0 C1.10957031 0.77085937 1.21914062 1.54171875 1.33203125 2.3359375 C1.49058594 3.33882812 1.64914063 4.34171875 1.8125 5.375 C1.96332031 6.37273437 2.11414063 7.37046875 2.26953125 8.3984375 C2.78772298 11.3287364 2.78772298 11.3287364 6 13 C4.02 13 2.04 13 0 13 C0 8.71 0 4.42 0 0 Z " fill="#0C2669" transform="translate(89,186)"/>
<path d="M0 0 C1.32 0 2.64 0 4 0 C4 1.98 4 3.96 4 6 C2.68 6 1.36 6 0 6 C0 4.02 0 2.04 0 0 Z " fill="#E2B019" transform="translate(392,263)"/>
<path d="M0 0 C1.98 0 3.96 0 6 0 C6 1.32 6 2.64 6 4 C4.02 4 2.04 4 0 4 C0 2.68 0 1.36 0 0 Z " fill="#C54B30" transform="translate(378,233)"/>
<path d="M0 0 C0.66 0.33 1.32 0.66 2 1 C2 2.98 2 4.96 2 7 C0.68 7 -0.64 7 -2 7 C-2.125 4.625 -2.125 4.625 -2 2 C-1.34 1.34 -0.68 0.68 0 0 Z " fill="#062867" transform="translate(401,221)"/>
<path d="M0 0 C0.33 0.66 0.66 1.32 1 2 C0.67 2.66 0.34 3.32 0 4 C1.32 4 2.64 4 4 4 C4.66 5.98 5.32 7.96 6 10 C4.68388323 9.04663979 3.37221039 8.08714226 2.0625 7.125 C1.33160156 6.59132812 0.60070313 6.05765625 -0.15234375 5.5078125 C-2 4 -2 4 -3 2 C-2.01 1.34 -1.02 0.68 0 0 Z " fill="#203B7C" transform="translate(58,219)"/>
<path d="M0 0 C0.66 1.32 1.32 2.64 2 4 C2.66 4 3.32 4 4 4 C4.33 4.99 4.66 5.98 5 7 C2.625 6.75 2.625 6.75 0 6 C-1.3125 3.9375 -1.3125 3.9375 -2 2 C-1.34 1.34 -0.68 0.68 0 0 Z " fill="#092775" transform="translate(45,218)"/>
<path d="M0 0 C1.65 0 3.3 0 5 0 C3.68 0.33 2.36 0.66 1 1 C1 4.3 1 7.6 1 11 C-1.97 10.505 -1.97 10.505 -5 10 C-4.01 9.67 -3.02 9.34 -2 9 C-1.19436362 6.89415562 -1.19436362 6.89415562 -0.8125 4.4375 C-0.65394531 3.61121094 -0.49539063 2.78492188 -0.33203125 1.93359375 C-0.22246094 1.29550781 -0.11289062 0.65742188 0 0 Z " fill="#474F53" transform="translate(283,206)"/>
<path d="M0 0 C3.24208567 0.35049575 4.61527704 0.56221181 6.8125 3.0625 C7.204375 3.701875 7.59625 4.34125 8 5 C3.48279689 5.36625971 3.48279689 5.36625971 1.1875 3.625 C0 2 0 2 0 0 Z " fill="#DFEAF4" transform="translate(115,159)"/>
<path d="M0 0 C2 0.66666667 4 1.33333333 6 2 C6 2.66 6 3.32 6 4 C3.36 4 0.72 4 -2 4 C-2 3.01 -2 2.02 -2 1 C-1.34 0.67 -0.68 0.34 0 0 Z " fill="#2B3B5B" transform="translate(402,267)"/>
<path d="M0 0 C0.99 0.33 1.98 0.66 3 1 C3 2.32 3 3.64 3 5 C1.68 5 0.36 5 -1 5 C-1 5.66 -1 6.32 -1 7 C-1.66 7 -2.32 7 -3 7 C-2.38722388 4.03824877 -1.74627478 2.61941217 0 0 Z " fill="#5E5C4F" transform="translate(436,262)"/>
<path d="M0 0 C1.32 0.33 2.64 0.66 4 1 C4.33 2.65 4.66 4.3 5 6 C3.35 5.67 1.7 5.34 0 5 C0 3.35 0 1.7 0 0 Z " fill="#0D2971" transform="translate(56,230)"/>
<path d="M0 0 C3.63 0 7.26 0 11 0 C11 0.66 11 1.32 11 2 C9.54263913 2.19491452 8.08405407 2.38069358 6.625 2.5625 C5.81289062 2.66691406 5.00078125 2.77132812 4.1640625 2.87890625 C2 3 2 3 0 2 C0 1.34 0 0.68 0 0 Z " fill="#152D6D" transform="translate(80,229)"/>
<path d="M0 0 C0.33 0 0.66 0 1 0 C1 2.64 1 5.28 1 8 C-0.32 8 -1.64 8 -3 8 C-3 6.02 -3 4.04 -3 2 C-2.34 2 -1.68 2 -1 2 C-0.67 1.34 -0.34 0.68 0 0 Z " fill="#122C64" transform="translate(313,220)"/>
<path d="M0 0 C1.98 0 3.96 0 6 0 C6 1.32 6 2.64 6 4 C3.69 4 1.38 4 -1 4 C-0.67 2.68 -0.34 1.36 0 0 Z " fill="#152D6A" transform="translate(316,212)"/>
<path d="M0 0 C0.33 0 0.66 0 1 0 C1.36923077 7.50769231 1.36923077 7.50769231 -0.5 10 C-0.995 10.33 -1.49 10.66 -2 11 C-2.66 10.67 -3.32 10.34 -4 10 C-3.34 8.02 -2.68 6.04 -2 4 C-1.34 4 -0.68 4 0 4 C0 2.68 0 1.36 0 0 Z " fill="#F7B610" transform="translate(358,244)"/>
<path d="M0 0 C3 3.75 3 3.75 3 6 C2.01 6.33 1.02 6.66 0 7 C-2.1875 5.5625 -2.1875 5.5625 -4 4 C-3.01 3.67 -2.02 3.34 -1 3 C-0.67 2.01 -0.34 1.02 0 0 Z " fill="#1E397D" transform="translate(119,222)"/>
<path d="M0 0 C0.515625 0.268125 1.03125 0.53625 1.5625 0.8125 C4.66401415 2.32349407 7.82262806 3.65572726 11 5 C10.01 5.66 9.02 6.32 8 7 C6.66144944 6.21718695 5.32926356 5.42348123 4 4.625 C3.2575 4.18414062 2.515 3.74328125 1.75 3.2890625 C1.1725 2.86367187 0.595 2.43828125 0 2 C0 1.34 0 0.68 0 0 Z " fill="#1D3678" transform="translate(51,195)"/>
<path d="M0 0 C0.99 0.33 1.98 0.66 3 1 C3 2.65 3 4.3 3 6 C1.02 6.99 1.02 6.99 -1 8 C-0.67 5.36 -0.34 2.72 0 0 Z " fill="#1A3474" transform="translate(107,187)"/>
<path d="M0 0 C1.32 0 2.64 0 4 0 C4.33 1.32 4.66 2.64 5 4 C3.35 4.33 1.7 4.66 0 5 C0 3.35 0 1.7 0 0 Z " fill="#0B287A" transform="translate(126,163)"/>
<path d="M0 0 C3 1.8125 3 1.8125 6 4 C6 4.99 6 5.98 6 7 C4.68 7 3.36 7 2 7 C1.67 6.01 1.34 5.02 1 4 C0.34 3.67 -0.32 3.34 -1 3 C-0.67 2.01 -0.34 1.02 0 0 Z " fill="#0D2C6C" transform="translate(67,133)"/>
<path d="M0 0 C0.33 1.32 0.66 2.64 1 4 C-1.875 4.1875 -1.875 4.1875 -5 4 C-5.66 3.01 -6.32 2.02 -7 1 C-5.5459375 1.0309375 -5.5459375 1.0309375 -4.0625 1.0625 C-1.12534105 1.35618499 -1.12534105 1.35618499 0 0 Z " fill="#C9422A" transform="translate(424,252)"/>
<path d="M0 0 C0.66 0 1.32 0 2 0 C2.33 2.97 2.66 5.94 3 9 C1.68 8.01 0.36 7.02 -1 6 C-0.67 4.02 -0.34 2.04 0 0 Z " fill="#CAD5E2" transform="translate(120,247)"/>
<path d="M0 0 C0.99 0 1.98 0 3 0 C3 2.31 3 4.62 3 7 C2.01 7 1.02 7 0 7 C0 4.69 0 2.38 0 0 Z " fill="#CF2A26" transform="translate(290,248)"/>
<path d="M0 0 C2.31 0 4.62 0 7 0 C7 0.99 7 1.98 7 3 C4.69 3 2.38 3 0 3 C0 2.01 0 1.02 0 0 Z " fill="#C43931" transform="translate(277,244)"/>
<path d="M0 0 C1.32 0.33 2.64 0.66 4 1 C3.34 1 2.68 1 2 1 C2 2.65 2 4.3 2 6 C1.01 6 0.02 6 -1 6 C-1.33 5.01 -1.66 4.02 -2 3 C-1.34 2.01 -0.68 1.02 0 0 Z " fill="#69614D" transform="translate(422,261)"/>
<path d="M0 0 C1.98 0 3.96 0 6 0 C6.33 0.99 6.66 1.98 7 3 C4.69 3 2.38 3 0 3 C0 2.01 0 1.02 0 0 Z " fill="#C83F2C" transform="translate(343,244)"/>
<path d="M0 0 C0.99 0 1.98 0 3 0 C2.67 1.32 2.34 2.64 2 4 C1.01 3.67 0.02 3.34 -1 3 C-1 5.31 -1 7.62 -1 10 C-1.33 10 -1.66 10 -2 10 C-2.1953125 3.9453125 -2.1953125 3.9453125 -2 2 C-1.34 1.34 -0.68 0.68 0 0 Z " fill="#162E69" transform="translate(419,214)"/>
<path d="M0 0 C1 2 1 2 0.9375 4 C0 6 0 6 -3.0625 7.25 C-4.031875 7.4975 -5.00125 7.745 -6 8 C-4.625 5.5 -4.625 5.5 -3 3 C-2.34 3 -1.68 3 -1 3 C-0.67 2.01 -0.34 1.02 0 0 Z " fill="#263B7E" transform="translate(47,169)"/>
<path d="M0 0 C3 3.75 3 3.75 3 6 C4.32 6.33 5.64 6.66 7 7 C5.1875 7.6875 5.1875 7.6875 3 8 C1.25 6.875 1.25 6.875 0 5 C-0.1875 2.3125 -0.1875 2.3125 0 0 Z " fill="#DA242A" transform="translate(312,246)"/>
<path d="M0 0 C0 2.62113708 -0.31292445 4.50935112 -1 7 C-1.66 7 -2.32 7 -3 7 C-3.33 7.66 -3.66 8.32 -4 9 C-4.8125 7.3125 -4.8125 7.3125 -5 5 C-2.5625 2.25 -2.5625 2.25 0 0 Z " fill="#203C83" transform="translate(112,229)"/>
<path d="M0 0 C0.33 0 0.66 0 1 0 C1 2.97 1 5.94 1 9 C-0.32 9 -1.64 9 -3 9 C-2.01 6.03 -1.02 3.06 0 0 Z " fill="#3B485D" transform="translate(439,219)"/>
<path d="M0 0 C3.3 0 6.6 0 10 0 C9.67 0.99 9.34 1.98 9 3 C6.03 2.67 3.06 2.34 0 2 C0 1.34 0 0.68 0 0 Z " fill="#CDA21F" transform="translate(380,216)"/>
<path d="M0 0 C0.99 0.66 1.98 1.32 3 2 C2.67 2.99 2.34 3.98 2 5 C-0.92879371 4.37240135 -3.36095629 3.41377341 -6 2 C-4.35 2 -2.7 2 -1 2 C-0.67 1.34 -0.34 0.68 0 0 Z " fill="#3F4854" transform="translate(429,213)"/>
<path d="M0 0 C2.31 1.65 4.62 3.3 7 5 C6.67 5.66 6.34 6.32 6 7 C4.68 7 3.36 7 2 7 C1.855625 6.401875 1.71125 5.80375 1.5625 5.1875 C1.1127561 3.43849596 0.57107659 1.71322977 0 0 Z " fill="#133076" transform="translate(98,146)"/>
<path d="M0 0 C1.98 0.66 3.96 1.32 6 2 C5.67 2.99 5.34 3.98 5 5 C2.69 4.34 0.38 3.68 -2 3 C-1.34 2.67 -0.68 2.34 0 2 C0 1.34 0 0.68 0 0 Z " fill="#122E7D" transform="translate(109,146)"/>
<path d="M0 0 C1.65 0 3.3 0 5 0 C5 1.65 5 3.3 5 5 C3.35 5.33 1.7 5.66 0 6 C0.99 4.35 1.98 2.7 3 1 C2.01 0.67 1.02 0.34 0 0 Z " fill="#1A315D" transform="translate(383,265)"/>
<path d="M0 0 C2.31 0 4.62 0 7 0 C5.71034824 1.37562854 4.37310707 2.70766393 3 4 C2.34 4 1.68 4 1 4 C0.67 2.68 0.34 1.36 0 0 Z " fill="#D63327" transform="translate(294,243)"/>
<path d="M0 0 C1.98 0 3.96 0 6 0 C6 0.99 6 1.98 6 3 C4.02 3 2.04 3 0 3 C0 2.01 0 1.02 0 0 Z " fill="#FEC008" transform="translate(344,240)"/>
<path d="M0 0 C1.32 0 2.64 0 4 0 C3.67 1.32 3.34 2.64 3 4 C1.68 4 0.36 4 -1 4 C-0.67 2.68 -0.34 1.36 0 0 Z " fill="#DBAD1E" transform="translate(386,221)"/>
<path d="M0 0 C0.33 0.99 0.66 1.98 1 3 C-0.32 4.32 -1.64 5.64 -3 7 C-3.99 6.67 -4.98 6.34 -6 6 C-4.02 4.02 -2.04 2.04 0 0 Z " fill="#203C7E" transform="translate(127,214)"/>
<path d="M0 0 C2.31 0 4.62 0 7 0 C6.67 0.99 6.34 1.98 6 3 C4.02 3 2.04 3 0 3 C0 2.01 0 1.02 0 0 Z " fill="#F2F8FE" transform="translate(83,200)"/>
<path d="M0 0 C0.99 0 1.98 0 3 0 C3 0.99 3 1.98 3 3 C3.66 3 4.32 3 5 3 C5 3.66 5 4.32 5 5 C3.68 5 2.36 5 1 5 C0.67 3.35 0.34 1.7 0 0 Z " fill="#D62828" transform="translate(428,249)"/>
<path d="M0 0 C1.98 0 3.96 0 6 0 C5.67 0.99 5.34 1.98 5 3 C3.35 3 1.7 3 0 3 C0 2.01 0 1.02 0 0 Z " fill="#F2F6FB" transform="translate(82,245)"/>
<path d="M0 0 C1.32 0.66 2.64 1.32 4 2 C3.67 2.66 3.34 3.32 3 4 C0.69 4 -1.62 4 -4 4 C-2.68 2.68 -1.36 1.36 0 0 Z " fill="#193581" transform="translate(96,243)"/>
<path d="M0 0 C0.66 0 1.32 0 2 0 C2 1.65 2 3.3 2 5 C0.68 5 -0.64 5 -2 5 C-1.34 3.35 -0.68 1.7 0 0 Z " fill="#D14C26" transform="translate(354,238)"/>
<path d="M0 0 C-1.36983503 3.16115776 -1.9890638 3.9927092 -5 6 C-5.33 5.01 -5.66 4.02 -6 3 C-2.25 0 -2.25 0 0 0 Z " fill="#E9F3FC" transform="translate(134,205)"/>
<path d="M0 0 C0.33 0.66 0.66 1.32 1 2 C1.99 2.33 2.98 2.66 4 3 C4.33 3.99 4.66 4.98 5 6 C3.35 6 1.7 6 0 6 C0 4.02 0 2.04 0 0 Z " fill="#0F317D" transform="translate(25,193)"/>
<path d="M0 0 C1.65 0.33 3.3 0.66 5 1 C2.51047079 3.66735273 0.36591866 5.55746343 -3 7 C-2.67 6.01 -2.34 5.02 -2 4 C-1.34 4 -0.68 4 0 4 C0 2.68 0 1.36 0 0 Z " fill="#183673" transform="translate(55,180)"/>
<path d="M0 0 C2.875 -0.1875 2.875 -0.1875 6 0 C6.66 0.99 7.32 1.98 8 3 C6.25 3.75 6.25 3.75 4 4 C1.75 2.0625 1.75 2.0625 0 0 Z " fill="#CAD7EA" transform="translate(110,156)"/>
<path d="M0 0 C4.875 4.75 4.875 4.75 6 7 C5.01 7.33 4.02 7.66 3 8 C1.58622659 5.36095629 0.62759865 2.92879371 0 0 Z " fill="#223264" transform="translate(97,129)"/>
<path d="M0 0 C3.875 4.75 3.875 4.75 5 7 C3.02 6.34 1.04 5.68 -1 5 C-0.67 3.35 -0.34 1.7 0 0 Z " fill="#142B69" transform="translate(90,120)"/>
</svg>
